<svg xmlns="http://www.w3.org/2000/svg" width="57" height="56" viewBox="0 0 57 56" fill="none"><path d="M46.7819 38.8284C46.3168 38.8284 45.9012 38.5009 45.8067 38.0275C45.6989 37.4882 46.0484 36.9637 46.588 36.8559C50.4631 36.0821 53.2752 32.6449 53.2752 28.6834C53.2752 24.0871 49.5357 20.3476 44.9394 20.3476C44.3276 20.3476 43.7131 20.4195 43.0607 20.5676C42.7234 20.6451 42.3723 20.5412 42.13 20.2945C41.8883 20.0486 41.7911 19.6947 41.8733 19.3596C42.0728 18.5437 42.1745 17.6949 42.1745 16.837C42.1745 10.854 37.307 5.98656 31.3238 5.98656C26.7713 5.98656 22.6701 8.86426 21.1193 13.1475C21.0154 13.435 20.7848 13.659 20.4942 13.7545C20.203 13.8493 19.8852 13.8065 19.6307 13.637C18.8178 13.095 17.8737 12.8085 16.9002 12.8085C14.1831 12.8085 11.9727 15.0189 11.9727 17.736C11.9727 18.2067 12.0428 18.6817 12.1817 19.1479C12.265 19.4285 12.2206 19.7314 12.0605 19.9764C11.9005 20.2212 11.641 20.3834 11.3504 20.4195C7.19306 20.9388 4.05809 24.4913 4.05809 28.6834C4.05809 32.6449 6.87023 36.0821 10.7453 36.8559C11.2849 36.9637 11.6344 37.4882 11.5266 38.0275C11.4188 38.5664 10.8926 38.9157 10.3553 38.809C5.55223 37.8497 2.06665 33.5912 2.06665 28.6834C2.06665 23.8526 5.42666 19.7072 10.0408 18.6331C10.0013 18.3345 9.98131 18.035 9.98131 17.736C9.98131 13.9209 13.0852 10.8171 16.9002 10.8171C17.8671 10.8171 18.8133 11.018 19.6879 11.4044C21.7816 6.9295 26.3224 3.99512 31.3238 3.99512C38.4049 3.99512 44.1659 9.75608 44.1659 16.837C44.1659 17.3601 44.1342 17.8808 44.0709 18.3953C44.3637 18.3692 44.6538 18.3561 44.9394 18.3561C50.6337 18.3561 55.2667 22.9888 55.2667 28.6834C55.2667 33.5912 51.7811 37.8497 46.978 38.809C46.9125 38.822 46.8464 38.8284 46.7819 38.8284Z" fill="#111A20"></path><path d="M34.9549 46.8944H22.3783C20.6264 46.8944 19.2006 45.4689 19.2006 43.7169V31.1404C19.2006 29.3884 20.6264 27.9629 22.3783 27.9629H34.9549C36.7068 27.9629 38.1326 29.3884 38.1326 31.1404V43.7169C38.1326 45.4689 36.7068 46.8944 34.9549 46.8944ZM22.3783 29.9543C21.7243 29.9543 21.192 30.4864 21.192 31.1404V43.7169C21.192 44.3709 21.7243 44.9029 22.3783 44.9029H34.9549C35.6089 44.9029 36.1412 44.3709 36.1412 43.7169V31.1404C36.1412 30.4864 35.6089 29.9543 34.9549 29.9543H22.3783Z" fill="#111A20"></path><path d="M42.2472 33.6692H37.1352C36.5852 33.6692 36.1395 33.2233 36.1395 32.6735C36.1395 32.1236 36.5852 31.6777 37.1352 31.6777H42.2472C42.7973 31.6777 43.2429 32.1236 43.2429 32.6735C43.2429 33.2233 42.7973 33.6692 42.2472 33.6692Z" fill="#111A20"></path><path d="M42.2472 38.4243H37.1352C36.5852 38.4243 36.1395 37.9784 36.1395 37.4286C36.1395 36.8788 36.5852 36.4329 37.1352 36.4329H42.2472C42.7973 36.4329 43.2429 36.8788 43.2429 37.4286C43.2429 37.9784 42.7973 38.4243 42.2472 38.4243Z" fill="#111A20"></path><path d="M42.2472 43.1797H37.1352C36.5852 43.1797 36.1395 42.7338 36.1395 42.184C36.1395 41.6341 36.5852 41.1882 37.1352 41.1882H42.2472C42.7973 41.1882 43.2429 41.6341 43.2429 42.184C43.2429 42.7338 42.7973 43.1797 42.2472 43.1797Z" fill="#111A20"></path><path d="M23.9114 29.9557C23.3613 29.9557 22.9156 29.5098 22.9156 28.96V23.848C22.9156 23.2982 23.3613 22.8523 23.9114 22.8523C24.4615 22.8523 24.9071 23.2982 24.9071 23.848V28.96C24.9071 29.5098 24.4615 29.9557 23.9114 29.9557Z" fill="#111A20"></path><path d="M28.6666 29.9557C28.1165 29.9557 27.6709 29.5098 27.6709 28.96V23.848C27.6709 23.2982 28.1165 22.8523 28.6666 22.8523C29.2167 22.8523 29.6623 23.2982 29.6623 23.848V28.96C29.6623 29.5098 29.2167 29.9557 28.6666 29.9557Z" fill="#111A20"></path><path d="M33.4219 29.9557C32.8718 29.9557 32.4261 29.5098 32.4261 28.96V23.848C32.4261 23.2982 32.8718 22.8523 33.4219 22.8523C33.972 22.8523 34.4176 23.2982 34.4176 23.848V28.96C34.4176 29.5098 33.972 29.9557 33.4219 29.9557Z" fill="#111A20"></path><path d="M20.198 43.1797H15.0861C14.536 43.1797 14.0903 42.7338 14.0903 42.184C14.0903 41.6341 14.536 41.1882 15.0861 41.1882H20.198C20.7481 41.1882 21.1937 41.6341 21.1937 42.184C21.1937 42.7338 20.7481 43.1797 20.198 43.1797Z" fill="#111A20"></path><path d="M20.198 38.4243H15.0861C14.536 38.4243 14.0903 37.9784 14.0903 37.4286C14.0903 36.8788 14.536 36.4329 15.0861 36.4329H20.198C20.7481 36.4329 21.1937 36.8788 21.1937 37.4286C21.1937 37.9784 20.7481 38.4243 20.198 38.4243Z" fill="#111A20"></path><path d="M20.198 33.6692H15.0861C14.536 33.6692 14.0903 33.2233 14.0903 32.6735C14.0903 32.1236 14.536 31.6777 15.0861 31.6777H20.198C20.7481 31.6777 21.1937 32.1236 21.1937 32.6735C21.1937 33.2233 20.7481 33.6692 20.198 33.6692Z" fill="#111A20"></path><path d="M33.4219 52.005C32.8718 52.005 32.4261 51.5591 32.4261 51.0093V45.8976C32.4261 45.3478 32.8718 44.9019 33.4219 44.9019C33.972 44.9019 34.4176 45.3478 34.4176 45.8976V51.0093C34.4176 51.5591 33.972 52.005 33.4219 52.005Z" fill="#111A20"></path><path d="M28.6666 52.005C28.1165 52.005 27.6709 51.5591 27.6709 51.0093V45.8976C27.6709 45.3478 28.1165 44.9019 28.6666 44.9019C29.2167 44.9019 29.6623 45.3478 29.6623 45.8976V51.0093C29.6623 51.5591 29.2167 52.005 28.6666 52.005Z" fill="#111A20"></path><path d="M23.9114 52.005C23.3613 52.005 22.9156 51.5591 22.9156 51.0093V45.8976C22.9156 45.3478 23.3613 44.9019 23.9114 44.9019C24.4615 44.9019 24.9071 45.3478 24.9071 45.8976V51.0093C24.9071 51.5591 24.4615 52.005 23.9114 52.005Z" fill="#111A20"></path><path d="M32.2584 42.0162H25.0749C24.5249 42.0162 24.0792 41.5703 24.0792 41.0205V33.837C24.0792 33.2872 24.5249 32.8413 25.0749 32.8413H32.2584C32.8085 32.8413 33.2541 33.2872 33.2541 33.837V41.0205C33.2541 41.5703 32.8085 42.0162 32.2584 42.0162ZM26.0707 40.0247H31.2626V34.8328H26.0707V40.0247Z" fill="#111A20"></path></svg>