<svg xmlns="http://www.w3.org/2000/svg" width="56" height="56" viewBox="0 0 56 56" fill="none"><path d="M49 26.25C48.4487 26.25 47.9036 26.3252 47.3716 26.4731C46.4012 25.4152 45.1141 24.7441 43.7028 24.5551C43.295 21.0805 40.3322 18.375 36.75 18.375C35.9371 18.375 35.1418 18.515 34.3796 18.7924C32.5509 17.3906 30.3056 16.625 28 16.625C22.5278 16.625 18.0198 20.8329 17.5455 26.25C17.5298 26.25 17.5149 26.25 17.5 26.25C14.1225 26.25 11.375 28.9984 11.375 32.375C11.375 35.7516 14.1225 38.5 17.5 38.5H31.108C28.5687 40.7339 25.3059 42 21.875 42C14.1558 42 7.875 35.7192 7.875 28C7.875 20.2808 14.1558 14 21.875 14C23.7143 14 25.3767 14.2748 26.8161 14.819L26.9649 14.875H48.125V13.125H27.2816C25.6804 12.544 23.8621 12.25 21.875 12.25C13.1906 12.25 6.125 19.3156 6.125 28C6.125 36.6844 13.1906 43.75 21.875 43.75C26.3638 43.75 30.6022 41.8338 33.5912 38.5H36.1795L36.9198 40.1791L34.0751 43.0238L32.2297 42.1094L31.8054 42.4016C29.7657 43.8104 27.489 44.7519 25.0399 45.199L24.5324 45.2909L23.8717 47.25H19.8791L19.2185 45.2918L18.711 45.1999C16.261 44.7519 13.9851 43.8112 11.9455 42.4025L11.5211 42.1102L9.67575 43.0246L6.85125 40.2001L7.76562 38.3539L7.4725 37.9304C6.0655 35.8934 5.124 33.6166 4.67512 31.1649L4.58238 30.6574L2.625 29.9968V26.0033L4.58238 25.3435L4.67512 24.836C5.124 22.3834 6.06462 20.1075 7.4725 18.0705L7.76562 17.647L6.85125 15.8008L9.67488 12.9771L11.5203 13.8915L11.9446 13.5992C13.9843 12.1905 16.261 11.249 18.7101 10.8019L19.2176 10.71L19.8783 8.75H23.8709L24.5315 10.7083L25.039 10.8001C25.4345 10.8728 25.8387 11.0049 26.2666 11.1458C26.4705 11.2122 26.6735 11.2779 26.8748 11.3391L38.9681 11.375L40.7181 8.75H44.625V7H39.7819L38.0319 9.625H27.2545C27.1075 9.5795 26.9596 9.53137 26.8109 9.48238C26.5046 9.38262 26.1922 9.28025 25.8676 9.19537L25.1283 7H18.6209L17.8859 9.17963C15.5531 9.66963 13.3691 10.5717 11.3802 11.8685L9.32663 10.85L4.725 15.4508L5.7435 17.5061C4.44763 19.4932 3.54463 21.6772 3.05375 24.0126L0.875 24.7467V31.2532L3.05463 31.9882C3.5455 34.3236 4.4485 36.5067 5.74438 38.4948L4.725 40.5492L9.32575 45.15L11.3811 44.1315C13.37 45.4282 15.554 46.3312 17.8867 46.8204L18.6217 49H25.1291L25.8641 46.8204C28.1969 46.3304 30.3809 45.4282 32.3697 44.1315L34.4251 45.15L39.0049 40.5711L38.0914 38.5H49C52.3775 38.5 55.125 35.7516 55.125 32.375C55.125 28.9984 52.3775 26.25 49 26.25ZM49 36.75H17.5C15.0876 36.75 13.125 34.7874 13.125 32.375C13.125 29.9626 15.0876 28 17.5 28C17.7275 28 17.9673 28.0219 18.2315 28.0665L19.25 28.1619V27.125C19.25 22.3003 23.1753 18.375 28 18.375C30.0694 18.375 32.081 19.117 33.6639 20.4627L34.0865 20.8215L34.5914 20.5931C35.2783 20.2825 36.0045 20.125 36.75 20.125C39.0311 20.125 40.971 21.5889 41.6938 23.625H36.75V25.375H38.5V33.25H36.75V35H42V33.25H40.25V25.375H42V26.25H42.875C44.2654 26.25 45.542 26.8931 46.3794 28.0158L46.7793 28.5513L47.4014 28.3071C47.9185 28.1033 48.4557 28 49 28C51.4124 28 53.375 29.9626 53.375 32.375C53.375 34.7874 51.4124 36.75 49 36.75ZM24.5 23.625C22.5697 23.625 21 25.1947 21 27.125V35H22.75V31.5H26.25V35H28V27.125C28 25.1947 26.4303 23.625 24.5 23.625ZM22.75 29.75V27.125C22.75 26.1599 23.5349 25.375 24.5 25.375C25.4651 25.375 26.25 26.1599 26.25 27.125V29.75H22.75ZM33.25 23.625H29.75V35H31.5V30.625H33.25C35.1802 30.625 36.75 29.0553 36.75 27.125C36.75 25.1947 35.1802 23.625 33.25 23.625ZM33.25 28.875H31.5V25.375H33.25C34.2151 25.375 35 26.1599 35 27.125C35 28.0901 34.2151 28.875 33.25 28.875ZM52.5 11.375C51.0527 11.375 49.875 12.5527 49.875 14C49.875 15.4473 51.0527 16.625 52.5 16.625C53.9473 16.625 55.125 15.4473 55.125 14C55.125 12.5527 53.9473 11.375 52.5 11.375ZM52.5 14.875C52.0179 14.875 51.625 14.483 51.625 14C51.625 13.517 52.0179 13.125 52.5 13.125C52.9821 13.125 53.375 13.517 53.375 14C53.375 14.483 52.9821 14.875 52.5 14.875ZM51.625 7.875C51.625 6.42775 50.4473 5.25 49 5.25C47.5527 5.25 46.375 6.42775 46.375 7.875C46.375 9.32225 47.5527 10.5 49 10.5C50.4473 10.5 51.625 9.32225 51.625 7.875ZM48.125 7.875C48.125 7.392 48.5179 7 49 7C49.4821 7 49.875 7.392 49.875 7.875C49.875 8.358 49.4821 8.75 49 8.75C48.5179 8.75 48.125 8.358 48.125 7.875ZM32.7373 51.625H43.75V53.375H32.0127L27.3814 48.7436L28.6186 47.5064L32.7373 51.625ZM45.5 52.5C45.5 53.9473 46.6777 55.125 48.125 55.125C49.5723 55.125 50.75 53.9473 50.75 52.5C50.75 51.0527 49.5723 49.875 48.125 49.875C46.6777 49.875 45.5 51.0527 45.5 52.5ZM49 52.5C49 52.983 48.6071 53.375 48.125 53.375C47.6429 53.375 47.25 52.983 47.25 52.5C47.25 52.017 47.6429 51.625 48.125 51.625C48.6071 51.625 49 52.017 49 52.5ZM52.5 43.75C51.0527 43.75 49.875 44.9277 49.875 46.375C49.875 47.8223 51.0527 49 52.5 49C53.9473 49 55.125 47.8223 55.125 46.375C55.125 44.9277 53.9473 43.75 52.5 43.75ZM52.5 47.25C52.0179 47.25 51.625 46.858 51.625 46.375C51.625 45.892 52.0179 45.5 52.5 45.5C52.9821 45.5 53.375 45.892 53.375 46.375C53.375 46.858 52.9821 47.25 52.5 47.25ZM37.625 45.5H48.125V47.25H37.625V45.5ZM3.5 6.125C4.94725 6.125 6.125 4.94725 6.125 3.5C6.125 2.05275 4.94725 0.875 3.5 0.875C2.05275 0.875 0.875 2.05275 0.875 3.5C0.875 4.94725 2.05275 6.125 3.5 6.125ZM3.5 2.625C3.98213 2.625 4.375 3.017 4.375 3.5C4.375 3.983 3.98213 4.375 3.5 4.375C3.01787 4.375 2.625 3.983 2.625 3.5C2.625 3.017 3.01787 2.625 3.5 2.625ZM7.875 3.5C7.875 4.94725 9.05275 6.125 10.5 6.125C11.9473 6.125 13.125 4.94725 13.125 3.5C13.125 2.05275 11.9473 0.875 10.5 0.875C9.05275 0.875 7.875 2.05275 7.875 3.5ZM11.375 3.5C11.375 3.983 10.9821 4.375 10.5 4.375C10.0179 4.375 9.625 3.983 9.625 3.5C9.625 3.017 10.0179 2.625 10.5 2.625C10.9821 2.625 11.375 3.017 11.375 3.5ZM14.875 3.5C14.875 4.94725 16.0527 6.125 17.5 6.125C18.9473 6.125 20.125 4.94725 20.125 3.5C20.125 2.05275 18.9473 0.875 17.5 0.875C16.0527 0.875 14.875 2.05275 14.875 3.5ZM18.375 3.5C18.375 3.983 17.9821 4.375 17.5 4.375C17.0179 4.375 16.625 3.983 16.625 3.5C16.625 3.017 17.0179 2.625 17.5 2.625C17.9821 2.625 18.375 3.017 18.375 3.5ZM27.125 3.5C27.125 2.05275 25.9473 0.875 24.5 0.875C23.0527 0.875 21.875 2.05275 21.875 3.5C21.875 4.94725 23.0527 6.125 24.5 6.125C25.9473 6.125 27.125 4.94725 27.125 3.5ZM23.625 3.5C23.625 3.017 24.0179 2.625 24.5 2.625C24.9821 2.625 25.375 3.017 25.375 3.5C25.375 3.983 24.9821 4.375 24.5 4.375C24.0179 4.375 23.625 3.983 23.625 3.5Z" fill="#111A20"></path></svg>