<svg xmlns="http://www.w3.org/2000/svg" width="54" height="54" viewBox="0 0 54 54" fill="none"><path d="M47.1765 16.5413C46.8471 9.70596 40.0941 5.0942 33.753 6.90596C32.0235 3.20008 28.2353 0.729492 24.1177 0.729492C18.9294 0.729492 14.4 4.60008 13.6588 9.70596C9.95295 10.2001 6.98824 13.0824 6.41177 16.7883C2.8706 17.9413 0.482361 21.153 0.482361 24.9413C0.482361 29.6354 4.2706 33.506 9.04707 33.506H13.2471C13.7412 33.506 14.0706 33.1766 14.0706 32.6824C14.0706 32.1883 13.7412 31.8589 13.2471 31.8589H9.04707C5.25883 31.8589 2.12942 28.7295 2.12942 24.9413C2.12942 21.8118 4.2706 19.0118 7.31766 18.2707C7.64707 18.1883 7.89412 17.8589 7.97648 17.5295C8.30589 14.153 11.1059 11.5177 14.4824 11.353C14.8941 11.353 15.2235 11.0236 15.2235 10.6118C15.6353 6.08243 19.5059 2.4589 24.1177 2.4589C27.8235 2.4589 31.2 4.84714 32.5177 8.30596C32.6824 8.71773 33.1765 8.96479 33.5882 8.80008C39.353 6.6589 45.6118 11.0236 45.6118 17.2001V17.3648C45.6118 17.7766 45.9412 18.106 46.2706 18.1883C49.5647 18.7648 51.953 21.5648 51.953 24.9413C51.953 28.7295 48.8235 31.8589 45.0353 31.8589H40.8353C40.3412 31.8589 40.0118 32.1883 40.0118 32.6824C40.0118 33.1766 40.3412 33.506 40.8353 33.506H45.0353C49.7294 33.506 53.6 29.7177 53.6 24.9413C53.5177 20.906 50.8824 17.5295 47.1765 16.5413Z" fill="#111A20"></path><path d="M20.0824 9.04708C20.6588 7.40002 22.2235 6.32943 23.9529 6.32943C25.2706 6.32943 26.4235 6.9059 27.2471 7.97649C27.4941 8.3059 28.0706 8.38826 28.4 8.1412C28.7294 7.89414 28.8118 7.31767 28.5647 6.98826C27.4941 5.5059 25.7647 4.68237 23.9529 4.68237C21.5647 4.68237 19.3412 6.24708 18.5177 8.47061C18.3529 8.88237 18.6 9.37649 19.0118 9.5412C19.4235 9.7059 19.9177 9.45884 20.0824 9.04708Z" fill="#111A20"></path><path d="M6.00003 24.5296C6.00003 24.0355 5.67061 23.7061 5.1765 23.7061C4.68238 23.7061 4.35297 24.0355 4.35297 24.5296C4.35297 27.4119 6.65885 29.7178 9.5412 29.7178C10.0353 29.7178 10.3647 29.3884 10.3647 28.8943C10.3647 28.4002 10.0353 28.0708 9.5412 28.0708C7.56473 28.0708 6.00003 26.4237 6.00003 24.5296Z" fill="#111A20"></path><path d="M15.7177 17.5294V35.9765H8.80002C6.98826 35.9765 5.50591 37.4588 5.50591 39.2706V42.7294C4.35296 43.0588 3.44708 44.2118 3.44708 45.447C3.44708 47.0118 4.76473 48.3294 6.32944 48.3294C7.89414 48.3294 9.21179 47.0118 9.21179 45.447C9.21179 44.1294 8.30591 43.0588 7.15296 42.7294V39.2706C7.15296 38.3647 7.89414 37.6235 8.80002 37.6235H15.7177V38.8588C15.7177 41.6588 20.5765 43.2235 25.7647 43.3882V46.847C24.3647 47.1765 23.2941 48.4941 23.2941 49.9765C23.2941 51.7882 24.7765 53.2706 26.5883 53.2706C28.4 53.2706 29.8824 51.7882 29.8824 49.9765C29.8824 48.4118 28.8118 47.1765 27.4118 46.7647V43.3059C32.9294 43.2235 38.3647 41.6588 38.3647 38.6941V37.4588H45.2824C46.1883 37.4588 46.9294 38.2 46.9294 39.1059V42.5647C45.7765 42.8941 44.8706 44.047 44.8706 45.2823C44.8706 46.847 46.1883 48.1647 47.753 48.1647C49.3177 48.1647 50.6353 46.847 50.6353 45.2823C50.6353 43.9647 49.7294 42.8941 48.5765 42.5647V39.1059C48.5765 37.2941 47.0941 35.8118 45.2824 35.8118H38.3647C38.3647 33.4235 38.3647 19.5882 38.3647 17.3647C38.3647 14.3176 32.6824 12.7529 27.0824 12.7529C21.4824 12.7529 15.7177 14.4823 15.7177 17.5294ZM7.48238 45.447C7.48238 46.1059 6.90591 46.6823 6.24708 46.6823C5.58826 46.6823 5.01179 46.1059 5.01179 45.447C5.01179 44.7882 5.58826 44.2118 6.24708 44.2118C6.98826 44.2118 7.48238 44.7882 7.48238 45.447ZM48.9059 45.447C48.9059 46.1059 48.3294 46.6823 47.6706 46.6823C47.0118 46.6823 46.4353 46.1059 46.4353 45.447C46.4353 44.7882 47.0118 44.2118 47.6706 44.2118C48.4118 44.2118 48.9059 44.7882 48.9059 45.447ZM36.6353 31.9412C36.6353 33.1765 32.8471 34.9059 27 34.9059C21.0706 34.9059 17.3647 33.1765 17.3647 31.9412V26.7529C19.4236 28.1529 23.2941 28.8118 27 28.8118C30.7883 28.8118 34.5765 28.0706 36.6353 26.7529V31.9412ZM36.6353 24.3647C36.6353 25.6 32.8471 27.3294 27 27.3294C21.0706 27.3294 17.3647 25.6 17.3647 24.3647V20C19.4236 21.4 23.2118 22.0588 27 22.0588C30.7883 22.0588 34.5765 21.3176 36.6353 20V24.3647ZM28.2353 49.9765C28.2353 50.8823 27.4941 51.6235 26.5883 51.6235C25.6824 51.6235 24.9412 50.8823 24.9412 49.9765C24.9412 49.0706 25.6824 48.3294 26.5883 48.3294C27.4941 48.3294 28.2353 49.0706 28.2353 49.9765ZM36.6353 38.7765C36.6353 40.0118 32.8471 41.7412 27 41.7412C21.0706 41.7412 17.3647 40.0118 17.3647 38.7765V34.4118C19.4236 35.8118 23.2941 36.4706 27 36.4706C30.7883 36.4706 34.5765 35.7294 36.6353 34.4118V38.7765ZM27 14.5647C32.9294 14.5647 36.6353 16.2941 36.6353 17.5294C36.6353 18.7647 32.8471 20.4941 27 20.4941C21.0706 20.4941 17.3647 18.7647 17.3647 17.5294C17.3647 16.2941 21.0706 14.5647 27 14.5647Z" fill="#111A20"></path><path d="M21.7294 23.2942C21.0706 23.1295 20.4942 22.8824 20 22.6354C19.5883 22.4707 19.0942 22.6354 18.9294 23.0471C18.7647 23.4589 18.9294 23.953 19.3412 24.1177C19.9177 24.3648 20.5765 24.6119 21.3177 24.8589C21.7294 24.9413 22.2236 24.6942 22.3059 24.2824C22.4706 23.8707 22.2236 23.4589 21.7294 23.2942Z" fill="#111A20"></path><path d="M21.7294 30.459C21.0706 30.2943 20.4942 30.0472 20 29.8002C19.5883 29.6355 19.0942 29.8002 18.9294 30.2119C18.7647 30.6237 18.9294 31.1178 19.3412 31.2825C19.9177 31.5296 20.5765 31.7766 21.3177 32.0237C21.7294 32.1061 22.2236 31.859 22.3059 31.4472C22.4706 31.0355 22.2236 30.5414 21.7294 30.459Z" fill="#111A20"></path><path d="M21.7294 37.5413C21.0706 37.3766 20.4942 37.1295 20 36.8825C19.5883 36.7177 19.0942 36.8825 18.9294 37.2942C18.7647 37.706 18.9294 38.2001 19.3412 38.3648C19.9177 38.6119 20.5765 38.8589 21.3177 39.106C21.7294 39.1883 22.2236 38.9413 22.3059 38.5295C22.4706 38.1177 22.2236 37.706 21.7294 37.5413Z" fill="#111A20"></path></svg>