<svg xmlns="http://www.w3.org/2000/svg" width="51" height="50" viewBox="0 0 51 50" fill="none"><path d="M16.1207 21.0081C13.3247 21.3427 11.1505 23.729 11.1505 26.6129C11.1505 29.725 13.6828 32.2581 16.7957 32.2581H36.1505C39.2634 32.2581 41.7957 29.725 41.7957 26.6129C41.7957 23.5008 39.2634 20.9677 36.1505 20.9677C35.8368 20.9677 35.5231 20.9944 35.2118 21.0484C34.4739 16.4097 30.4545 12.9032 25.6666 12.9032C20.8618 12.9032 16.8747 16.3411 16.1207 21.0081ZM25.6666 14.5161C29.9295 14.5161 33.461 17.8524 33.7061 22.1113L33.7682 23.1895L34.7844 22.8242C35.2328 22.6629 35.6924 22.5806 36.1505 22.5806C38.3739 22.5806 40.1828 24.3895 40.1828 26.6129C40.1828 28.8363 38.3739 30.6452 36.1505 30.6452H16.7957C14.5723 30.6452 12.7634 28.8363 12.7634 26.6129C12.7634 24.3903 14.5715 22.5815 16.7884 22.5815H16.79L17.569 22.6266L17.6392 21.8492C18.0158 17.6685 21.4666 14.5161 25.6666 14.5161ZM20.8279 22.5806H19.215C19.215 19.0234 22.1094 16.129 25.6666 16.129V17.7419C22.9981 17.7419 20.8279 19.9121 20.8279 22.5806ZM23.2473 26.6129C23.2473 27.9468 24.3328 29.0323 25.6666 29.0323C27.0005 29.0323 28.086 27.9468 28.086 26.6129C28.086 25.279 27.0005 24.1935 25.6666 24.1935C24.3328 24.1935 23.2473 25.279 23.2473 26.6129ZM26.4731 26.6129C26.4731 27.0581 26.111 27.4194 25.6666 27.4194C25.2223 27.4194 24.8602 27.0581 24.8602 26.6129C24.8602 26.1677 25.2223 25.8065 25.6666 25.8065C26.111 25.8065 26.4731 26.1677 26.4731 26.6129ZM16.7957 26.6129C16.7957 27.9468 17.8811 29.0323 19.215 29.0323C20.5489 29.0323 21.6344 27.9468 21.6344 26.6129C21.6344 25.279 20.5489 24.1935 19.215 24.1935C17.8811 24.1935 16.7957 25.279 16.7957 26.6129ZM19.215 25.8065C19.6594 25.8065 20.0215 26.1677 20.0215 26.6129C20.0215 27.0581 19.6594 27.4194 19.215 27.4194C18.7707 27.4194 18.4086 27.0581 18.4086 26.6129C18.4086 26.1677 18.7707 25.8065 19.215 25.8065ZM32.1182 29.0323C33.4521 29.0323 34.5376 27.9468 34.5376 26.6129C34.5376 25.279 33.4521 24.1935 32.1182 24.1935C30.7844 24.1935 29.6989 25.279 29.6989 26.6129C29.6989 27.9468 30.7844 29.0323 32.1182 29.0323ZM32.1182 25.8065C32.5626 25.8065 32.9247 26.1677 32.9247 26.6129C32.9247 27.0581 32.5626 27.4194 32.1182 27.4194C31.6739 27.4194 31.3118 27.0581 31.3118 26.6129C31.3118 26.1677 31.6739 25.8065 32.1182 25.8065ZM30.7989 6.96452C27.9682 4.13387 23.3642 4.13387 20.5336 6.96452L19.3932 5.82419C22.8521 2.36532 28.4803 2.36532 31.9392 5.82419L30.7989 6.96452ZM28.5182 9.24597C27.7561 8.48468 26.7432 8.06452 25.6666 8.06452C24.59 8.06452 23.5771 8.48468 22.815 9.24597L21.6747 8.10565C22.7416 7.03952 24.1586 6.45161 25.6666 6.45161C27.1747 6.45161 28.5916 7.03952 29.6586 8.10565L28.5182 9.24597ZM27.3779 10.3863L26.2368 11.5266C25.9328 11.221 25.4013 11.221 25.0973 11.5266L23.9561 10.3863C24.8699 9.47258 26.4634 9.47258 27.3779 10.3863ZM30.7989 40.029C27.9682 37.1984 23.3642 37.1984 20.5336 40.029L19.3932 38.8887C22.8521 35.4298 28.4803 35.4298 31.9392 38.8887L30.7989 40.029ZM28.5182 42.3105C27.7561 41.5492 26.7432 41.129 25.6666 41.129C24.59 41.129 23.5771 41.5492 22.815 42.3105L21.6747 41.1702C22.7416 40.104 24.1586 39.5161 25.6666 39.5161C27.1747 39.5161 28.5916 40.104 29.6586 41.1702L28.5182 42.3105ZM27.3779 43.4508L26.2368 44.5911C25.9328 44.2855 25.4013 44.2855 25.0973 44.5911L23.9561 43.4508C24.8699 42.5371 26.4634 42.5371 27.3779 43.4508ZM13.3908 20.3403L12.2505 21.4806C9.41985 18.65 4.81582 18.65 1.98517 21.4806L0.844852 20.3403C4.30453 16.8815 9.93195 16.8815 13.3908 20.3403ZM9.96985 23.7621C9.20776 23.0008 8.19485 22.5806 7.11824 22.5806C6.04163 22.5806 5.02872 23.0008 4.26663 23.7621L3.1263 22.6218C4.19324 21.5556 5.61017 20.9677 7.11824 20.9677C8.6263 20.9677 10.0432 21.5556 11.1102 22.6218L9.96985 23.7621ZM8.82953 24.9024L7.6884 26.0427C7.38437 25.7371 6.85292 25.7371 6.54888 26.0427L5.40776 24.9024C6.32147 23.9887 7.91501 23.9887 8.82953 24.9024ZM49.3473 21.4806C46.5166 18.65 41.9126 18.65 39.0819 21.4806L37.9416 20.3403C41.4005 16.8815 47.0287 16.8815 50.4876 20.3403L49.3473 21.4806ZM47.0666 23.7621C46.3045 23.0008 45.2916 22.5806 44.215 22.5806C43.1384 22.5806 42.1255 23.0008 41.3634 23.7621L40.2231 22.6218C41.29 21.5556 42.7069 20.9677 44.215 20.9677C45.7231 20.9677 47.14 21.5556 48.207 22.6218L47.0666 23.7621ZM45.9263 24.9024L44.7852 26.0427C44.4811 25.7371 43.9497 25.7371 43.6457 26.0427L42.5045 24.9024C43.4182 23.9887 45.0118 23.9887 45.9263 24.9024ZM48.2473 0H36.9569C35.6231 0 34.5376 1.08548 34.5376 2.41935V10.4839C34.5376 11.8177 35.6231 12.9032 36.9569 12.9032H39.3763V14.5161H37.7634V16.129H47.4408V14.5161H45.8279V12.9032H48.2473C49.5811 12.9032 50.6666 11.8177 50.6666 10.4839V2.41935C50.6666 1.08548 49.5811 0 48.2473 0ZM36.9569 1.6129H48.2473C48.6916 1.6129 49.0537 1.97419 49.0537 2.41935V8.06452H36.1505V2.41935C36.1505 1.97419 36.5126 1.6129 36.9569 1.6129ZM44.215 14.5161H40.9892V12.9032H44.215V14.5161ZM48.2473 11.2903H36.9569C36.5126 11.2903 36.1505 10.929 36.1505 10.4839V9.67742H49.0537V10.4839C49.0537 10.929 48.6916 11.2903 48.2473 11.2903ZM3.08598 16.129H9.53759C10.8715 16.129 11.9569 15.0435 11.9569 13.7097V2.41935C11.9569 1.08548 10.8715 0 9.53759 0H3.08598C1.75211 0 0.666626 1.08548 0.666626 2.41935V13.7097C0.666626 15.0435 1.75211 16.129 3.08598 16.129ZM9.53759 14.5161H3.08598C2.64163 14.5161 2.27953 14.1548 2.27953 13.7097V12.9032H10.344V13.7097C10.344 14.1548 9.98195 14.5161 9.53759 14.5161ZM2.27953 11.2903V4.83871H10.344V11.2903H2.27953ZM3.08598 1.6129H9.53759C9.98195 1.6129 10.344 1.97419 10.344 2.41935V3.22581H2.27953V2.41935C2.27953 1.97419 2.64163 1.6129 3.08598 1.6129ZM48.2473 33.871H38.5699C37.236 33.871 36.1505 34.9565 36.1505 36.2903V37.9032C36.1505 38.525 36.3932 39.0871 36.7795 39.5161C36.3924 39.9452 36.1505 40.5073 36.1505 41.129V42.7419C36.1505 43.3637 36.3932 43.9258 36.7795 44.3548C36.3924 44.7839 36.1505 45.346 36.1505 45.9677V47.5806C36.1505 48.9145 37.236 50 38.5699 50H48.2473C49.5811 50 50.6666 48.9145 50.6666 47.5806V45.9677C50.6666 45.346 50.4239 44.7839 50.0376 44.3548C50.4247 43.9258 50.6666 43.3637 50.6666 42.7419V41.129C50.6666 40.5073 50.4239 39.9452 50.0376 39.5161C50.4247 39.0871 50.6666 38.525 50.6666 37.9032V36.2903C50.6666 34.9565 49.5811 33.871 48.2473 33.871ZM37.7634 36.2903C37.7634 35.8452 38.1255 35.4839 38.5699 35.4839H48.2473C48.6916 35.4839 49.0537 35.8452 49.0537 36.2903V37.9032C49.0537 38.3484 48.6916 38.7097 48.2473 38.7097H38.5699C38.1255 38.7097 37.7634 38.3484 37.7634 37.9032V36.2903ZM49.0537 41.129V42.7419C49.0537 43.1871 48.6916 43.5484 48.2473 43.5484H38.5699C38.1255 43.5484 37.7634 43.1871 37.7634 42.7419V41.129C37.7634 40.6839 38.1255 40.3226 38.5699 40.3226H48.2473C48.6916 40.3226 49.0537 40.6839 49.0537 41.129ZM49.0537 47.5806C49.0537 48.0258 48.6916 48.3871 48.2473 48.3871H38.5699C38.1255 48.3871 37.7634 48.0258 37.7634 47.5806V45.9677C37.7634 45.5226 38.1255 45.1613 38.5699 45.1613H48.2473C48.6916 45.1613 49.0537 45.5226 49.0537 45.9677V47.5806ZM3.89243 50H16.7957C18.5747 50 20.0215 48.5532 20.0215 46.7742C20.0215 45.8847 19.2981 45.1613 18.4086 45.1613V36.2903C18.4086 34.9565 17.3231 33.871 15.9892 33.871H4.69888C3.36501 33.871 2.27953 34.9565 2.27953 36.2903V45.1613C1.39001 45.1613 0.666626 45.8847 0.666626 46.7742C0.666626 48.5532 2.1134 50 3.89243 50ZM3.89243 36.2903C3.89243 35.8452 4.25453 35.4839 4.69888 35.4839H15.9892C16.4336 35.4839 16.7957 35.8452 16.7957 36.2903V45.1613H3.89243V36.2903ZM18.4086 46.7742C18.4086 47.6637 17.6852 48.3871 16.7957 48.3871H3.89243C3.00292 48.3871 2.27953 47.6637 2.27953 46.7742H18.4086ZM5.50534 43.5484H15.1828V37.0968H5.50534V43.5484ZM7.11824 38.7097H13.5699V41.9355H7.11824V38.7097Z" fill="#111A20"></path></svg>