<?xml version="1.0" encoding="UTF-8"?>
<svg xmlns="http://www.w3.org/2000/svg" id="Calque_1" data-name="Calque 1" viewBox="0 0 55 55">
  <defs>
    <style>
      .cls-1 {
        fill: #090712;
        stroke-width: 0px;
      }
    </style>
  </defs>
  <path class="cls-1" d="m6.81,39.51c.02-.24.05-.48.05-.71,0-2.05,0-4.1,0-6.15,0-.49-.1-.79-.61-1.05-1.53-.78-1.94-2.56-1-3.92.92-1.34,2.74-1.57,4.03-.45.39.34.69.34,1.12.15,1.97-.84,3.94-1.67,5.92-2.46.51-.2.67-.48.66-1.01-.02-2.8-.02-5.6,0-8.41,0-.52-.16-.78-.64-1.03-1.45-.77-1.88-2.43-1.05-3.79.81-1.32,2.55-1.72,3.85-.79.47.34.82.34,1.3.09,1.37-.69,2.75-1.34,4.11-2,.07-.42.1-.78.2-1.12.36-1.3,1.49-2.06,2.87-1.97,1.23.09,2.27,1.04,2.38,2.31.05.58.3.83.79,1.04,1.33.56,2.65,1.16,3.96,1.76.38.18.68.22,1.07-.05,1.47-1,3.14-.65,3.98.78.81,1.38.3,2.99-1.22,3.83-.13.07-.26.13-.42.21-.01.29-.04.55-.04.82,0,2.74.01,5.48-.02,8.22,0,.59.14.93.72,1.16,1.84.75,3.65,1.56,5.47,2.36.43.19.73.19,1.13-.15,1.31-1.09,3.13-.82,4.02.53.91,1.37.46,3.07-1.08,3.91-.37.2-.52.43-.52.83.01,2.17.02,4.34,0,6.51,0,.49.25.66.62.86,1.13.63,1.64,1.77,1.37,2.98-.24,1.1-1.15,1.94-2.33,2.09-.69.09-1.33-.08-1.87-.5-.34-.26-.61-.27-.98-.08-1.37.68-2.76,1.35-4.15,2-.38.18-.5.43-.55.83-.19,1.55-1.23,2.53-2.66,2.54-1.4.02-2.53-1-2.71-2.51-.05-.45-.21-.69-.61-.88-2.01-.95-4.02-1.91-6.02-2.9-.46-.22-.82-.2-1.27.02-1.97.97-3.95,1.93-5.94,2.86-.44.2-.6.47-.66.95-.18,1.48-1.26,2.45-2.64,2.46-1.41.01-2.55-.99-2.71-2.5-.05-.5-.25-.73-.68-.93-1.31-.6-2.61-1.24-3.9-1.88-.41-.2-.71-.25-1.14.03-1.41.93-3.1.52-3.9-.88-.78-1.37-.29-2.95,1.18-3.76.16-.09.32-.17.5-.27Zm28.36-25.73c-2.34,1.07-4.76,2.18-7.18,3.28,0,.43,0,.76,0,1.09,0,2.32.06,4.63,0,6.95-.02.94.02,1.73,1.06,2.06.03,0,.05.03.07.05.31.44.68.35,1.11.16,1.55-.66,3.11-1.29,4.66-1.94.61-.26,1.44-.39,1.74-.85.32-.5.18-1.33.18-2.01.01-2.35,0-4.69,0-7.04,0-.34.09-.72-.35-.94-.42-.21-.81-.5-1.31-.82Zm-8.46,23.15c0-1.41,0-2.83,0-4.24,0-1.01-1.15-1.71-2.04-1.26-1.95,1-3.89,2.03-5.85,3.01-.54.27-.73.58-.73,1.18.03,2.41.03,4.81,0,7.22-.01.87-.08,1.7,1,2,.05.01.1.07.14.11.31.38.65.3,1.04.11,1.94-.95,3.89-1.9,5.84-2.82.45-.21.61-.5.6-.98-.02-1.44,0-2.89,0-4.33Zm8.28,8.37c.48-.31.9-.53,1.27-.83.17-.15.32-.44.32-.66.02-2.83.01-5.66.02-8.49,0-.38-.13-.6-.47-.78-2.09-1.06-4.17-2.14-6.25-3.22-.31-.16-.55-.18-.82.06-.16.14-.34.28-.53.34-.44.13-.51.42-.51.82.01,2.92.02,5.84,0,8.76,0,.5.17.75.62.95,1.02.45,2.01.95,3.01,1.43,1.13.55,2.27,1.1,3.35,1.62Zm-16.71-25.64h0c0,1.35.03,2.71-.01,4.06-.02.66.18,1.03.82,1.28,1.62.65,3.21,1.35,4.79,2.08.78.36,1.41.52,2.19-.13.45-.38.66-.66.65-1.22-.04-2.65-.05-5.29-.04-7.94,0-.55-.16-.86-.68-1.1-1.64-.74-3.27-1.52-4.88-2.33-.8-.4-1.45-.65-2.26.08-.37.34-.59.57-.59,1.07.02,1.38,0,2.77,0,4.15Zm-8.71,11.43c-.28.18-.51.39-.79.49-.53.18-.63.54-.63,1.04.02,2.07.01,4.15,0,6.22,0,.42.06.72.51.94,1.04.5,1.58,1.38,1.51,2.55-.03.49.2.69.59.87.98.45,1.99.88,2.91,1.43.98.58,1.82.69,2.72-.12.25-.22.41-.38.41-.72,0-2.83,0-5.65,0-8.48,0-.34-.12-.55-.43-.71-2.27-1.16-4.54-2.33-6.81-3.51Zm30.04,14.19c1.5-.72,3.04-1.47,4.58-2.19.37-.17.33-.46.32-.75-.03-1.17.5-2.03,1.52-2.55.38-.19.52-.41.52-.83-.02-2.17,0-4.33,0-6.5,0-.78-1.17-1.47-1.87-1.12-2.09,1.07-4.16,2.15-6.25,3.22-.29.15-.47.33-.47.68,0,2.86,0,5.72.02,8.57,0,.22.18.49.36.63.37.3.79.53,1.26.83Zm-14.86-15.76c-.03-.51-.23-.75-.62-.92-2.05-.87-4.09-1.76-6.14-2.62-.22-.09-.54-.09-.76,0-2.17.88-4.33,1.8-6.5,2.7-.33.14-.53.31-.56.72-.03.41.15.6.47.76,2.11,1.08,4.23,2.17,6.33,3.27.33.17.61.16.93,0,2.11-1.1,4.22-2.18,6.32-3.29.22-.12.34-.4.51-.61Zm19.87,0c-.04-.53-.27-.73-.65-.89-2.02-.86-4.02-1.75-6.05-2.6-.24-.1-.6-.11-.84-.02-2.18.87-4.34,1.78-6.51,2.66-.35.14-.5.35-.52.74-.02.4.14.6.47.77,2.12,1.08,4.22,2.18,6.34,3.24.23.11.61.12.83.01,2.15-1.08,4.28-2.19,6.41-3.31.22-.11.34-.4.51-.6ZM25.09,9.22c-1.46.7-2.89,1.4-4.33,2.08-.3.14-.49.31-.47.68.02.36.11.61.48.78,2.05.95,4.07,1.94,6.12,2.88.24.11.61.15.85.04,2.2-.97,4.38-1.99,6.58-2.97.37-.17.44-.42.45-.79.01-.38-.18-.54-.48-.67-1.35-.6-2.69-1.2-4.04-1.79-.21-.09-.44-.16-.63-.24-1.32,1.22-2.73,1.59-4.52,0Zm23.5,19.97c0-.72-.68-1.37-1.41-1.36-.74.01-1.36.66-1.34,1.4.01.76.63,1.36,1.39,1.35.75-.01,1.37-.65,1.36-1.4ZM17.6,10.69c-.75.02-1.37.65-1.36,1.4,0,.77.6,1.36,1.38,1.35.77,0,1.37-.61,1.37-1.37,0-.73-.67-1.4-1.38-1.38Zm31,31.5c0-.72-.66-1.36-1.4-1.36-.73,0-1.37.65-1.36,1.39.01.76.64,1.37,1.38,1.36.74-.01,1.37-.65,1.38-1.39Zm-29.8,4.8c0-.73-.64-1.4-1.36-1.4-.74,0-1.38.63-1.38,1.38,0,.76.59,1.37,1.36,1.37.77,0,1.38-.59,1.39-1.35Zm8.54-16.37c.77,0,1.39-.59,1.39-1.34,0-.73-.64-1.37-1.37-1.38-.75,0-1.37.61-1.37,1.36,0,.78.57,1.35,1.36,1.36Zm-1.36-23.11c-.03.76.55,1.38,1.32,1.41.76.03,1.39-.55,1.43-1.31.04-.72-.58-1.39-1.33-1.42-.74-.04-1.39.57-1.42,1.32ZM7.55,27.83c-.75-.03-1.39.57-1.42,1.32-.03.76.55,1.4,1.31,1.42.76.03,1.4-.57,1.43-1.32.03-.74-.59-1.41-1.32-1.43Zm-.07,15.74c.75,0,1.39-.62,1.39-1.36,0-.73-.64-1.38-1.38-1.38-.75,0-1.37.62-1.38,1.37,0,.76.59,1.37,1.36,1.37Zm29.81,4.75c.75,0,1.39-.62,1.39-1.34,0-.74-.64-1.38-1.38-1.38-.74,0-1.37.62-1.38,1.37,0,.76.59,1.35,1.37,1.36Zm1.55-36.24c0-.72-.66-1.38-1.38-1.38-.72,0-1.35.64-1.36,1.39-.01.76.59,1.35,1.37,1.35.77,0,1.37-.6,1.37-1.36Z"></path>
</svg>
