<?xml version="1.0" encoding="UTF-8"?>
<svg xmlns="http://www.w3.org/2000/svg" id="Layer_1" data-name="Layer 1" viewBox="0 0 40 40">
  <defs>
    <style>
      .cls-1, .cls-2 {
        fill: #231f20;
        stroke-width: 0px;
      }

      .cls-2 {
        fill-rule: evenodd;
      }
    </style>
  </defs>
  <path class="cls-1" d="m35.75,18.43c0-2.33-1.82-4.25-4.12-4.4-.11-4.52-3.83-8.17-8.38-8.17-3.06,0-5.82,1.64-7.29,4.25-.57-.2-1.17-.31-1.76-.31-2.53,0-4.66,1.78-5.2,4.15-.44-.14-.9-.22-1.36-.22-2.51,0-4.55,2.04-4.55,4.55s2.04,4.55,4.55,4.55h7.46c0-.69.08-1.36.22-2h-7.68c-1.4,0-2.55-1.14-2.55-2.55s1.14-2.55,2.55-2.55c.75,0,1.3.33,1.63.61l1.9,1.6-.28-2.64c0-.06-.02-.11-.02-.17,0-1.84,1.5-3.33,3.33-3.33.6,0,1.17.17,1.71.49l1,.6.44-1.08c.99-2.41,3.31-3.96,5.9-3.96,3.52,0,6.38,2.86,6.38,6.38,0,.26-.02.51-.05.75.48.32.94.68,1.35,1.08.14-.03.28-.05.4-.05,1.33,0,2.41,1.08,2.41,2.41,0,.51-.16.97-.43,1.36.25.73.42,1.49.48,2.29,1.17-.79,1.94-2.13,1.94-3.65Z"></path>
  <path class="cls-2" d="m28.28,18.51c-.21-.18-.43-.35-.66-.5l.3-1.51c.07-.27-.07-.55-.34-.64l-1.35-.46h0c-.25-.09-.53.03-.65.28l-.67,1.42c-.28-.02-.55-.02-.82,0-.27.02-.54.05-.81.11l-.83-1.3c-.14-.24-.44-.34-.69-.22l-1.28.63h0c-.23.11-.35.39-.27.64l.5,1.5c-.21.18-.41.37-.6.58-.18.2-.35.42-.5.66l-1.5-.33c-.27-.08-.55.07-.64.34l-.46,1.35h0c-.08.25.02.52.26.64l1.42.71c-.02.28-.03.56,0,.83.02.28.05.55.11.82l-1.33.85h0c-.22.14-.31.43-.19.67l.62,1.27c.11.24.39.37.65.28l1.5-.5c.18.21.37.41.58.6.2.18.42.35.66.5l-.33,1.5c-.08.27.07.55.34.64l1.35.46h0c.25.08.52-.03.64-.26l.71-1.42c.28.02.56.03.84,0,.28-.02.56-.06.83-.12l.86,1.29c.14.24.44.33.69.21l1.28-.63h0c.24-.12.35-.4.26-.65l-.53-1.48c.21-.18.41-.37.59-.58.18-.21.35-.43.5-.66l1.51.3c.27.07.55-.07.64-.34l.46-1.35h0c.09-.25-.03-.53-.27-.65l-1.42-.67c.02-.28.02-.55,0-.82-.02-.28-.06-.56-.11-.83l1.29-.86c.24-.14.33-.44.21-.69l-.63-1.28h0c-.12-.24-.39-.35-.65-.26l-1.48.53c-.18-.21-.37-.41-.58-.59h0Zm-4.74,2.48c.48-.24,1.05-.29,1.59-.1.54.19.96.58,1.2,1.05.24.48.29,1.05.1,1.59-.19.54-.58.96-1.05,1.2-.48.24-1.05.29-1.59.1-.54-.19-.96-.58-1.2-1.05-.24-.48-.29-1.05-.1-1.59.19-.54.58-.96,1.05-1.2Z"></path>
  <path class="cls-2" d="m15.97,27.27c-.1-.17-.22-.33-.35-.48l.52-.98c.11-.17.07-.39-.1-.51l-.84-.6h0c-.15-.11-.37-.09-.5.05l-.76.84c-.19-.07-.37-.13-.56-.18-.19-.05-.39-.08-.58-.09l-.3-1.07c-.04-.2-.23-.33-.43-.29l-1.02.17h0c-.18.03-.32.19-.32.39l.03,1.14c-.18.08-.36.17-.53.28-.17.1-.33.22-.48.35l-.97-.54c-.17-.11-.4-.07-.51.1l-.6.84h0c-.11.15-.09.36.05.5l.83.78c-.07.19-.13.38-.18.57-.05.19-.08.39-.1.59l-1.09.31h0c-.18.05-.3.23-.27.42l.16,1c.02.19.19.34.39.33l1.14-.03c.08.18.17.36.28.53.1.17.22.33.35.48l-.54.97c-.11.17-.07.4.1.51l.84.6h0c.15.11.36.09.5-.05l.78-.83c.19.08.38.14.58.18.2.05.4.08.6.09l.32,1.07c.04.19.23.32.43.29l1.02-.17h0c.19-.03.33-.2.32-.39l-.06-1.13c.18-.08.36-.17.53-.28.17-.1.33-.22.48-.35l.98.52c.17.11.39.07.51-.1l.6-.84h0c.11-.16.09-.37-.05-.5l-.84-.76c.07-.19.13-.38.18-.57.05-.2.08-.39.09-.59l1.07-.32c.19-.04.32-.23.29-.43l-.17-1.02h0c-.03-.19-.2-.33-.39-.32l-1.13.06c-.08-.18-.17-.36-.28-.53h0Zm-3.79.72c.38-.06.78.02,1.12.26.34.24.54.6.61.98.06.38-.02.78-.26,1.12-.24.34-.6.54-.98.61-.38.06-.78-.02-1.12-.26-.34-.24-.54-.6-.61-.98-.06-.38.02-.78.26-1.12.24-.34.6-.54.98-.61Z"></path>
</svg>
