<?xml version="1.0" encoding="UTF-8"?>
<svg xmlns="http://www.w3.org/2000/svg" id="Layer_1" data-name="Layer 1" viewBox="0 0 40 40">
  <defs>
    <style>
      .cls-1 {
        fill: none;
      }

      .cls-1, .cls-2 {
        stroke-width: 0px;
      }

      .cls-2 {
        fill: #231f20;
      }
    </style>
  </defs>
  <path class="cls-1" d="m32.5,30.65h.26c.28,0,.5-.22.5-.5s-.22-.5-.5-.5h-.26c-.28,0-.5.22-.5.5s.22.5.5.5Z"></path>
  <path class="cls-2" d="m34.78,14.64h-4.73l.16,1h4.06v12.96H12.28v-3.44c-.34-.04-.67-.11-1-.19v3.71h0v3.13c0,.28.22.5.5.5h9.25c-.34.69-1.03,1.35-1.65,1.93-.3.28-.58.55-.82.81h0c-.18.2-.17.52.04.7.1.09.21.13.33.13h0s8.7,0,8.7,0c.28,0,.5-.22.5-.5,0-.15-.06-.28-.16-.37-.23-.26-.5-.51-.79-.78-.62-.58-1.31-1.24-1.65-1.93h9.25c.28,0,.5-.22.5-.5V15.14c0-.28-.22-.5-.5-.5Zm-2.27,16.51h-.39c-.41,0-.75-.34-.75-.75s.34-.75.75-.75h.39c.41,0,.75.34.75.75s-.34.75-.75.75Z"></path>
  <g>
    <path class="cls-1" d="m9.26,10.7l.74-.21s3.51-1.02,8.06-2.32c-.32-.63-.68-1.26-1.08-1.87-4.79,1.36-9.17,2.62-10.88,3.12.95,1.69,3.3,6.29,4.37,12.01.91-.26,1.75-.49,2.54-.72-1.23-5.4-3.35-9.28-3.38-9.33l-.37-.67Z"></path>
    <path class="cls-1" d="m22.88,10.11c-.27-.6-.57-1.19-.91-1.78-.74.21-1.47.42-2.19.62-.2.06-.4.11-.59.17-.2.06-.4.11-.6.17-3.41.97-6.25,1.79-7.53,2.16.68,1.36,2.17,4.65,3.14,8.9.04.2.09.4.13.6.04.2.08.4.12.6.13.67.25,1.36.34,2.07.74-.21,1.45-.41,2.11-.6-.59-5.79-3.05-10.34-3.05-10.34,0,0,4.01-1.16,9.02-2.59Z"></path>
    <path class="cls-2" d="m25.93,9.24c-.63.18-1.25.35-1.86.53-.37-.83-.8-1.67-1.3-2.48l-.24-.39-.44.13c-.96.27-1.91.54-2.82.8-.43-.87-.93-1.74-1.51-2.59l-.25-.36-.42.12c-6.33,1.79-12.07,3.46-12.07,3.46l-.78.22.43.69c.03.06,3.53,5.74,4.73,12.93l.11.67.66-.18c1.13-.31,2.16-.61,3.12-.88.16.83.3,1.7.4,2.58l.08.71.69-.19c.91-.25,1.76-.49,2.56-.72.03.66.05,1.34.02,2.02,7.62-2.12,12.31-3.67,12.31-3.67,0,0,.36-7.33-3.4-13.39Zm-.97,2.87l.22-.06.53,1.18-.39.12-1.18.36-6.71,2.02-.46-1.3,6.81-1.97,1.19-.34Zm-6.69,6.41l-.36-1.33,6.03-1.88.43,1.39-6.1,1.82Zm4.34,1.96l-3.61,1.03-.27-1.44,3.59-1.03.29,1.43Zm-12.14.94c-1.07-5.72-3.42-10.32-4.37-12.01,1.71-.49,6.09-1.76,10.88-3.12.4.61.76,1.24,1.08,1.87-4.55,1.3-8.06,2.32-8.06,2.32l-.74.21.37.67s2.15,3.93,3.38,9.33c-.8.23-1.63.47-2.54.72Zm4.32,2.21c-.1-.71-.21-1.4-.34-2.07-.04-.2-.08-.4-.12-.6-.04-.2-.08-.4-.13-.6-.97-4.25-2.46-7.54-3.14-8.9,1.27-.37,4.12-1.19,7.53-2.16.2-.06.4-.11.6-.17.2-.06.4-.11.59-.17.71-.2,1.44-.41,2.19-.62.34.58.64,1.18.91,1.78-5.01,1.43-9.02,2.59-9.02,2.59,0,0,2.46,4.55,3.05,10.34-.67.19-1.37.39-2.11.6Z"></path>
  </g>
</svg>
