<?xml version="1.0" encoding="UTF-8"?>
<svg xmlns="http://www.w3.org/2000/svg" id="Layer_1" data-name="Layer 1" viewBox="0 0 40 40">
  <defs>
    <style>
      .cls-1 {
        fill: #231f20;
        fill-rule: evenodd;
        stroke-width: 0px;
      }
    </style>
  </defs>
  <path class="cls-1" d="m7.78,21.23c.36-.55.62-1.12.97-1.68.34-.54.8-1.01.97-1.73.11-.47-.16-1.05-.25-1.43-.2-.85-.03-2.37.17-3.07,1.53-5.45,5.52-9.61,12.62-9.46.19.12.55.02.8.08.65.15,1.32.22,1.94.42,1.46.49,2.74,1.19,3.87,2.02.3.23.54.57.84.8.17.13.38.25.51.42.39.52.85.98,1.22,1.51.56.81.99,1.77,1.39,2.73.27.66.37,1.43.55,2.14.01.23.03.45.04.67.2.87.13,2.54-.08,3.36-.21.8-.36,1.63-.67,2.36-.37.87-.83,1.74-1.35,2.48-.66.94-1.46,1.66-1.81,2.94-.09.34-.11.87-.04,1.18.12.58-.02,1.1.13,1.64.24.91.68,1.93.67,2.99-.73.77-2.07.99-3.11,1.43-2.16.92-4.44,1.73-6.6,2.65-.65.28-1.31.49-1.93.76-.26.11-.54.14-.76.29-.53,0-.57-.16-.84-.38-.09-.78.1-2.9-.29-3.32-.15-.39-.9-.51-1.51-.42-.88.13-2.1.37-3.03.13-.78-.21-1.97-.91-1.72-2.06.11-.55.44-1.21.25-1.85-.19-.64-1.23-1.1-.97-1.81.08-.13.17-.25.25-.38-.25-.16-.32-.4-.5-.63.01-.45.18-.52.29-.8.11-.26.07-.55.04-.84-.12-.12-.19-.32-.34-.42-.6-.4-1.5-.33-1.94-.93-.45-.62-.04-1.35.25-1.81m4.12-5.55c.31.49.91.86,1.51,1.05.34.06.67.11,1.01.17h3.28s.2-.43.25-.5c.2-.28.59-.58.88-.76.38-.23.84-.32,1.26-.51.84-.36,1.73-.77,2.57-1.14.3-.13.59-.2.84-.38.55-.39.65-1.23,1.01-1.81,1.44-.28.06,1.96-.21,2.23-.43.43-1.04.62-1.64.88-.97.42-2.01.89-2.99,1.3-.63.27-1.66.92-1.39,2.02.3,1.2,1.62,2.81,3.45,2.27,1.05-.31,2.08-.84,3.07-1.26.62-.26,1.88-.61,2.31-1.01.29.05.51.21.76.29.91.3,2.15.27,2.82-.21,1.51-1.1.48-4.99-.08-6.31-.16-.37-.26-.72-.46-1.05-1.31-2.15-3.11-3.69-5.64-4.63-.58-.21-1.24-.27-1.85-.42-.3-.07-.76.06-1.01-.08-4.74.02-7.4,2.21-9.21,5.17-.72,1.17-1.52,3.13-.55,4.67"></path>
</svg>
