<?xml version="1.0" encoding="UTF-8"?>
<svg xmlns="http://www.w3.org/2000/svg" id="Calque_1" data-name="Calque 1" viewBox="0 0 55 55">
  <defs>
    <style>
      .cls-1 {
        fill: #090712;
        stroke-width: 0px;
      }
    </style>
  </defs>
  <path class="cls-1" d="m38.35,36.19c.72,1.03,1.41,2.01,2.11,3,1.04,1.47,2.11,2.92,3.12,4.41,1.2,1.77.76,4.04-.96,5.21-1.65,1.12-3.86.75-5.11-.91-1.14-1.53-2.22-3.11-3.33-4.67-.6-.85-1.22-1.69-1.81-2.55-.55-.79-.54-.71-1.36-.53-6.17,1.33-11.57-.12-16-4.67-5.96-6.13-6.12-16.04-.4-22.34,4-4.41,9.02-6.2,14.91-5.36,7.34,1.04,13.11,7.06,13.91,14.39.56,5.15-.98,9.6-4.49,13.39-.19.2-.37.41-.58.65Zm-8-26.95c-.06.19-.1.27-.1.35-.01,1.04.02,2.09-.03,3.13-.03.61.14.95.72,1.24,1.14.57,1.63,1.84,1.31,3.09-.29,1.13-1.35,1.97-2.53,2.01-1.25.04-2.33-.71-2.7-1.89-.39-1.22.07-2.47,1.16-3.16.26-.16.53-.29.77-.43v-4.6c-1.8-.36-3.51-.2-5.22.2-.03.26-.07.46-.07.65,0,3.77,0,7.55-.01,11.32,0,.48.16.77.59,1.01,1.72.97,3.4,1.99,5.13,2.94.66.36.89.8.88,1.54-.04,3.8-.02,7.6-.02,11.41,0,.29,0,.59,0,.97,1.63-.31,2.98-.9,4.3-1.6.48-.25.67-.56.67-1.12-.03-3.24-.03-6.48,0-9.72,0-.55-.16-.84-.67-1.09-1.19-.6-1.7-2.01-1.28-3.25.4-1.15,1.55-1.95,2.73-1.88,1.18.07,2.21.93,2.49,2.07.31,1.27-.18,2.49-1.35,3.07-.51.25-.67.54-.67,1.09.02,2.9,0,5.8,0,8.7,0,.2.05.41.09.65,2.92-2.05,6.12-6.9,5.71-12.8-.3-4.44-2.21-8.04-5.75-11.03-.02.47-.04.74-.05,1.01,0,1.44,0,2.87,0,4.31,0,.74-.21,1.1-.64,1.09-.41,0-.65-.38-.65-1.1,0-1.49,0-2.99,0-4.48,0-1.93,0-1.95-1.75-2.74-.97-.43-1.94-.87-3.07-.96Zm-8.41,29.33c0-1.66.01-3.07-.02-4.47,0-.17-.19-.37-.35-.49-.19-.16-.46-.22-.65-.38-.83-.66-1.26-1.52-1.09-2.59.17-1.09.81-1.87,1.86-2.21,1.08-.35,2.06-.1,2.85.75,1.22,1.31.87,3.37-.72,4.26-.28.16-.67.19-.66.65,0,1.57,0,3.15,0,4.79,1.94.51,3.84.66,5.79.37.03-.25.07-.42.07-.58,0-3.89,0-7.77,0-11.66,0-.49-.19-.76-.61-1-1.69-.95-3.35-1.97-5.06-2.89-.69-.37-.94-.82-.93-1.59.04-3.63.02-7.27.02-10.9,0-.32-.04-.65-.06-1.08-.41.12-.71.16-.98.3-.98.5-1.94,1.03-2.91,1.53-.56.29-.77.72-.76,1.37.03,2.17.03,4.34,0,6.51,0,.63.14,1.01.76,1.31,1.19.58,1.69,2.09,1.21,3.34-.46,1.21-1.8,1.95-3.07,1.71-1.16-.22-1.99-1.08-2.19-2.28-.19-1.15.32-2.25,1.42-2.81.51-.26.67-.55.66-1.1-.03-1.83,0-3.66-.02-5.49,0-.23-.05-.46-.08-.76-6.53,5.68-6.04,16.82.09,21.89,0-.35,0-.62,0-.89,0-1.55,0-3.1,0-4.65,0-.23-.05-.49.04-.66.12-.21.37-.48.57-.48.19,0,.46.27.56.49.1.21.05.5.05.75,0,1.97.02,3.94-.01,5.91,0,.58.17.96.68,1.23.32.17.6.42.93.58.79.4,1.6.77,2.59,1.24Zm11.21,1.02c.78,1.09,1.54,2.17,2.3,3.24,1.03,1.45,2.04,2.9,3.08,4.33.64.88,1.73,1.23,2.69.94,1.05-.32,1.7-1.13,1.79-2.22.05-.61-.14-1.16-.49-1.66-1.6-2.25-3.19-4.5-4.79-6.74-.11-.15-.25-.27-.33-.35-1.42.83-2.77,1.61-4.24,2.47Zm-16.01-18.16c-.82.02-1.48.72-1.46,1.53.02.78.69,1.4,1.49,1.4.85,0,1.47-.66,1.44-1.52-.03-.8-.68-1.43-1.48-1.41Zm13.95-5.08c.01-.83-.65-1.51-1.48-1.51-.8,0-1.44.63-1.46,1.43-.02.84.63,1.5,1.47,1.5.82,0,1.45-.62,1.46-1.42Zm4.78,8.2c.8-.01,1.44-.65,1.46-1.44.01-.78-.72-1.5-1.51-1.49-.8.01-1.48.73-1.45,1.54.03.77.71,1.4,1.5,1.39Zm-13.35,5c-.78,0-1.43.67-1.44,1.46,0,.85.65,1.51,1.48,1.48.81-.02,1.43-.64,1.44-1.45.01-.81-.67-1.5-1.49-1.5Z"></path>
</svg>
