<?xml version="1.0" encoding="UTF-8"?>
<svg xmlns="http://www.w3.org/2000/svg" id="Layer_1" data-name="Layer 1" viewBox="0 0 40 40">
  <defs>
    <style>
      .cls-1 {
        fill: #231f20;
        stroke-width: 0px;
      }
    </style>
  </defs>
  <path class="cls-1" d="m30.32,5.83c-2.67-1.39-5.74-.33-7.39,2.35-1.64-2.68-4.71-3.74-7.39-2.35-3.07,1.59-4.46,5.81-3.1,9.42,1.35,3.59,10.42,10.17,10.49,10.22h0s0,0,0,0h0s0,0,0,0c.06-.04,9.13-6.62,10.49-10.22,1.36-3.61-.03-7.82-3.1-9.42Z"></path>
  <path class="cls-1" d="m29.26,26.72H6.6v-13.36h3.88v-1.03h-4.4c-.28,0-.52.23-.52.52v13.95h0v.95h0v2.27c0,.28.23.52.52.52h9.53c-.35.71-1.06,1.39-1.7,1.99-.31.29-.6.56-.84.84h0c-.19.21-.17.54.04.73.1.09.22.13.34.13h0s8.96,0,8.96,0c.28,0,.52-.23.52-.52,0-.15-.06-.28-.17-.38-.24-.26-.52-.53-.81-.8-.64-.6-1.35-1.28-1.7-1.99h9.53c.28,0,.52-.23.52-.52v-2.27h0v-.95h0v-3.99q-.49.35-1.03.7v3.22Zm-1.57,2.11h-.27c-.28,0-.52-.23-.52-.52s.23-.52.52-.52h.27c.28,0,.52.23.52.52s-.23.52-.52.52Z"></path>
</svg>
