<?xml version="1.0" encoding="UTF-8"?>
<svg xmlns="http://www.w3.org/2000/svg" id="Layer_1" data-name="Layer 1" viewBox="0 0 55 55">
  <defs>
    <style>
      .cls-1 {
        stroke-width: 0px;
      }
    </style>
  </defs>
  <path class="cls-1" d="m32.51,39.02h-10.35c-.18,0-.35-.07-.48-.2-.13-.13-.2-.3-.2-.48,0-.03-.06-3.8-3.79-10.4-1.2-1.83-1.85-4-1.85-6.24,0-6.33,5.15-11.48,11.48-11.48s11.48,5.15,11.48,11.48c0,2.24-.65,4.41-1.87,6.28-3.73,6.61-3.77,10.32-3.77,10.36,0,.18-.07.35-.2.48-.13.13-.3.2-.48.2Zm-9.72-1.35h9.1c.16-1.41.87-5,3.91-10.39,1.1-1.69,1.67-3.6,1.67-5.58,0-5.59-4.55-10.14-10.14-10.14s-10.14,4.55-10.14,10.14c0,1.98.57,3.89,1.65,5.54,3.06,5.42,3.77,9.01,3.94,10.42Z"></path>
  <path class="cls-1" d="m32.55,44.6h-10.39c-.86,0-1.57-.7-1.57-1.57v-.98c0-.32.1-.62.26-.87-.19-.26-.3-.58-.3-.92v-.98c0-.86.7-1.57,1.57-1.57h10.39c.86,0,1.57.7,1.57,1.57v.98c0,.32-.1.62-.26.86.19.26.3.58.3.92v.98c0,.86-.7,1.57-1.57,1.57Zm-10.39-2.76c-.12,0-.22.1-.22.22v.98c0,.12.1.22.22.22h10.39c.12,0,.22-.1.22-.22v-.98c0-.12-.1-.22-.22-.22-.41,0-.71-.3-.71-.67s.3-.67.67-.67c.12,0,.22-.1.22-.22v-.98c0-.12-.1-.22-.22-.22h-10.39c-.12,0-.22.1-.22.22v.98c0,.13.11.22.23.22.37,0,.7.29.7.67s-.3.67-.67.67Z"></path>
  <path class="cls-1" d="m28.42,48.79h-2.16c-.19,0-.37-.08-.5-.22l-1.42-1.57h-.65c-.72,0-1.3-.6-1.3-1.33v-1.09c0-.73.58-1.33,1.3-1.33h7.3c.72,0,1.3.6,1.3,1.33v1.09c0,.73-.58,1.33-1.3,1.33h-.65l-1.42,1.57c-.13.14-.31.22-.5.22Zm-1.86-1.35h1.56l1.42-1.57c.13-.14.31-.22.5-.22h.95l-.05-1.05h-7.25l.05,1.07.9-.02c.19,0,.37.08.5.22l1.42,1.57Z"></path>
  <path class="cls-1" d="m24.67,25.66c-.17,0-.34-.07-.48-.2l-2.15-2.15c-.26-.26-.26-.69,0-.95l2.15-2.15c.26-.26.69-.26.95,0,.26.26.26.69,0,.95l-1.67,1.67,1.67,1.67c.26.26.26.69,0,.95-.13.13-.3.2-.48.2Z"></path>
  <path class="cls-1" d="m30.01,25.66c-.17,0-.34-.07-.48-.2-.26-.26-.26-.69,0-.95l1.67-1.67-1.67-1.67c-.26-.26-.26-.69,0-.95.26-.26.69-.26.95,0l2.15,2.15c.26.26.26.69,0,.95l-2.15,2.15c-.13.13-.3.2-.48.2Z"></path>
  <path class="cls-1" d="m27.34,39.02c-.37,0-.67-.3-.67-.67v-4.75c0-.15.05-.29.14-.41l1.99-2.64c.22-.3.65-.36.94-.13.3.22.36.65.13.94l-1.85,2.46v4.53c0,.37-.3.67-.67.67Z"></path>
  <path class="cls-1" d="m27.34,39.02c-.37,0-.67-.3-.67-.67v-4.53l-1.85-2.46c-.22-.3-.16-.72.13-.94.3-.22.72-.16.94.13l1.99,2.64c.09.12.14.26.14.41v4.75c0,.37-.3.67-.67.67Z"></path>
  <path class="cls-1" d="m27.34,9.57c-.37,0-.67-.3-.67-.67v-2.32c0-.37.3-.67.67-.67s.67.3.67.67v2.32c0,.37-.3.67-.67.67Z"></path>
  <path class="cls-1" d="m34.46,11.36c-.11,0-.23-.03-.34-.09-.32-.19-.43-.6-.25-.92l1.1-1.91c.19-.32.6-.43.92-.25.32.19.43.6.25.92l-1.1,1.91c-.12.22-.35.34-.58.34Z"></path>
  <path class="cls-1" d="m39.65,16.59c-.23,0-.46-.12-.58-.34-.19-.32-.08-.73.25-.92l1.94-1.12c.32-.19.73-.08.92.25.19.32.08.73-.25.92l-1.94,1.12c-.11.06-.22.09-.34.09Z"></path>
  <path class="cls-1" d="m43.8,23.7h-2.79c-.37,0-.67-.3-.67-.67s.3-.67.67-.67h2.79c.37,0,.67.3.67.67s-.3.67-.67.67Z"></path>
  <path class="cls-1" d="m41.59,31.93c-.11,0-.23-.03-.34-.09l-2.8-1.61c-.32-.19-.43-.6-.25-.92.19-.32.6-.43.92-.25l2.8,1.61c.32.19.43.6.25.92-.12.22-.35.34-.58.34Z"></path>
  <path class="cls-1" d="m35.57,37.95c-.23,0-.46-.12-.58-.34l-.67-1.16c-.19-.32-.08-.73.25-.92.32-.18.73-.08.92.25l.67,1.16c.19.32.08.73-.25.92-.11.06-.22.09-.34.09Z"></path>
  <path class="cls-1" d="m20.21,11.36c-.23,0-.46-.12-.58-.34l-1.1-1.91c-.19-.32-.08-.73.25-.92.32-.19.73-.08.92.25l1.1,1.91c.19.32.08.73-.25.92-.11.06-.22.09-.34.09Z"></path>
  <path class="cls-1" d="m15.02,16.59c-.11,0-.23-.03-.34-.09l-1.94-1.12c-.32-.19-.43-.6-.25-.92.19-.32.6-.43.92-.25l1.94,1.12c.32.19.43.6.25.92-.12.22-.35.34-.58.34Z"></path>
  <path class="cls-1" d="m13.68,23.7h-2.79c-.37,0-.67-.3-.67-.67s.3-.67.67-.67h2.79c.37,0,.67.3.67.67s-.3.67-.67.67Z"></path>
  <path class="cls-1" d="m13.09,31.93c-.23,0-.46-.12-.58-.34-.19-.32-.08-.73.25-.92l2.8-1.61c.32-.19.73-.08.92.25.19.32.08.73-.25.92l-2.8,1.61c-.11.06-.22.09-.34.09Z"></path>
  <path class="cls-1" d="m19.11,37.95c-.11,0-.23-.03-.34-.09-.32-.19-.43-.6-.25-.92l.67-1.16c.19-.32.6-.43.92-.25.32.19.43.6.25.92l-.67,1.16c-.12.22-.35.34-.58.34Z"></path>
</svg>
