<?xml version="1.0" encoding="UTF-8"?>
<svg xmlns="http://www.w3.org/2000/svg" id="Layer_1" data-name="Layer 1" viewBox="0 0 40 40">
  <defs>
    <style>
      .cls-1 {
        fill: none;
        stroke: #231f20;
        stroke-miterlimit: 10;
      }

      .cls-2 {
        fill: #fff;
      }

      .cls-2, .cls-3 {
        stroke-width: 0px;
      }

      .cls-3 {
        fill: #231f20;
      }
    </style>
  </defs>
  <g>
    <path class="cls-3" d="m27.87,18.64c0-.18-.4-.45-.58-.45h-5.9v-3.51c0-.18-.14-.33-.32-.33l-6.13,4.09v-3.76c0-.18-.15-.33-.33-.33l-7.31,4.4-.34-10.67c0-.1-.09-.17-.19-.17h-1.69c-.11,0-.19.08-.19.17l-.38,13.01h0v6.32c0,.59.47,1.06,1.06,1.06h21.25c.59,0,1.07-.47,1.07-1.06v-.12h0v-8.65Z"></path>
    <rect class="cls-2" x="8.41" y="22.17" width="15.53" height=".82"></rect>
    <rect class="cls-2" x="8.41" y="24.63" width="15.53" height=".82"></rect>
    <path class="cls-1" d="m6.34,4.86s3.7-3.07,7.37,0"></path>
    <path class="cls-1" d="m18.87,4.86s3.7-3.07,7.37,0"></path>
    <path class="cls-1" d="m17.9,6.01s-3.38,3.42-7.34.72"></path>
  </g>
  <path class="cls-3" d="m36.54,26.02l-2.23-1.37c.12-1.01.09-2.02-.05-2.99l2.17-1.38c.4-.26.56-.77.37-1.2l-1.01-2.37c-.18-.43-.66-.68-1.13-.57l-2.56.61c-.59-.77-1.29-1.47-2.09-2.05l.57-2.54c.1-.47-.15-.94-.6-1.12l-1.2-.48-1.2-.48c-.44-.17-.96,0-1.21.41l-1.35,2.22c-.06,0-1.54,0-1.59-.01v2.01c.1.01,1.63.03,1.73.05,4.14.74,7.29,4.36,7.29,8.71,0,4.9-3.97,8.86-8.86,8.86-2.44,0-4.65-.99-6.25-2.59l-1.18,1.34c.36.35.76.68,1.18.98l-.56,2.52c-.1.47.15.94.6,1.12l2.39.96c.44.17.96,0,1.21-.41l1.37-2.23c1,.12,2.02.1,2.99-.05l1.37,2.19c.26.4.77.56,1.2.37l2.37-1.01c.43-.18.68-.66.57-1.13l-.61-2.55c.78-.62,1.48-1.34,2.07-2.16l2.52.56c.47.1.94-.15,1.12-.6l.97-2.39c.19-.43.02-.96-.4-1.24Z"></path>
</svg>
