<?xml version="1.0" encoding="UTF-8"?>
<svg xmlns="http://www.w3.org/2000/svg" id="Layer_1" data-name="Layer 1" viewBox="0 0 40 40">
  <defs>
    <style>
      .cls-1 {
        fill: #231f20;
        stroke-width: 0px;
      }
    </style>
  </defs>
  <path class="cls-1" d="m22.45,7.41h-14.01l-.77,17.58h15.54l-.77-17.58Zm-7,7.13c-2.39,0-4.33-1.94-4.33-4.33,0-.42.34-.77.77-.77s.77.34.77.77c0,1.54,1.25,2.8,2.8,2.8s2.8-1.25,2.8-2.8c0-.42.34-.77.77-.77s.77.34.77.77c0,2.39-1.94,4.33-4.33,4.33Z"></path>
  <g>
    <polygon class="cls-1" points="9.45 30.07 10.27 30.07 31.06 30.07 31.88 30.07 31.88 29.24 31.88 16.1 31.88 15.28 31.06 15.28 24.29 15.28 24.39 16.72 30.34 16.72 30.34 28.72 11.1 28.72 11.1 26.38 9.45 26.38 9.45 29.24 9.45 30.07"></polygon>
    <path class="cls-1" d="m31.88,31.2H9.46c-.61,0-1.1.49-1.1,1.1s.49,1.1,1.1,1.1h22.42c.61,0,1.1-.49,1.1-1.1s-.49-1.1-1.1-1.1Z"></path>
  </g>
</svg>
