<?xml version="1.0" encoding="UTF-8"?>
<svg xmlns="http://www.w3.org/2000/svg" id="Layer_1" data-name="Layer 1" viewBox="0 0 40 40">
  <defs>
    <style>
      .cls-1 {
        fill: #231f20;
        stroke-width: 0px;
      }
    </style>
  </defs>
  <rect class="cls-1" x="10.1" y="28.64" width="4.62" height="4.62"></rect>
  <rect class="cls-1" x="10.1" y="23.34" width="4.62" height="4.62"></rect>
  <rect class="cls-1" x="10.1" y="18.04" width="4.62" height="4.62"></rect>
  <rect class="cls-1" x="10.1" y="12.74" width="4.62" height="4.62"></rect>
  <rect class="cls-1" x="15.44" y="28.64" width="4.62" height="4.62"></rect>
  <rect class="cls-1" x="15.44" y="23.34" width="4.62" height="4.62"></rect>
  <rect class="cls-1" x="15.44" y="18.04" width="4.62" height="4.62"></rect>
  <rect class="cls-1" x="15.44" y="7.44" width="4.62" height="4.62"></rect>
  <rect class="cls-1" x="20.78" y="28.64" width="4.62" height="4.62"></rect>
  <rect class="cls-1" x="20.78" y="23.34" width="4.62" height="4.62"></rect>
  <rect class="cls-1" x="20.78" y="18.04" width="4.62" height="4.62"></rect>
  <rect class="cls-1" x="20.78" y="12.74" width="4.62" height="4.62"></rect>
  <rect class="cls-1" x="26.12" y="28.64" width="4.62" height="4.62"></rect>
  <rect class="cls-1" x="26.12" y="23.34" width="4.62" height="4.62"></rect>
  <rect class="cls-1" x="26.12" y="18.04" width="4.62" height="4.62"></rect>
  <rect class="cls-1" x="26.12" y="12.74" width="4.62" height="4.62"></rect>
</svg>
