<?xml version="1.0" encoding="UTF-8"?>
<svg xmlns="http://www.w3.org/2000/svg" id="Layer_1" data-name="Layer 1" viewBox="0 0 55 55">
  <defs>
    <style>
      .cls-1 {
        stroke-width: 0px;
      }
    </style>
  </defs>
  <path class="cls-1" d="m27.54,19.58c-2.86,0-5.19-2.33-5.19-5.19s2.33-5.19,5.19-5.19,5.19,2.33,5.19,5.19-2.33,5.19-5.19,5.19Zm0-9.04c-2.12,0-3.84,1.73-3.84,3.84s1.73,3.85,3.84,3.85,3.84-1.73,3.84-3.85-1.72-3.84-3.84-3.84Z"></path>
  <path class="cls-1" d="m33.12,32.61c-.74,0-1.45-.29-1.97-.82-.91-.91-1.08-2.32-.42-3.42l2.28-3.77-1.88-2.81c-2.34.73-4.86.73-7.21,0l-1.88,2.81,2.28,3.77c.67,1.1.5,2.51-.41,3.42-.59.59-1.4.87-2.22.81-.82-.07-1.57-.5-2.04-1.18l-3.58-5.13c-.6-.86-.63-1.98-.07-2.86l3.64-5.32c.21-.31.63-.38.94-.17.31.21.38.63.17.94l-3.63,5.29c-.25.4-.24.94.05,1.35l3.58,5.13c.25.35.63.57,1.06.61.43.04.84-.11,1.15-.42.47-.47.56-1.2.21-1.77l-2.5-4.14c-.14-.22-.13-.51.02-.72l2.4-3.6c.17-.26.5-.36.79-.26,2.35.85,4.95.85,7.3,0,.29-.1.62,0,.79.26l2.4,3.6c.14.22.15.5.02.72l-2.5,4.14c-.34.57-.26,1.3.22,1.77.3.3.72.46,1.15.42.43-.04.81-.26,1.06-.61l3.58-5.13c.29-.41.3-.95.03-1.37l-3.61-5.27c-.21-.31-.13-.73.17-.94.31-.21.73-.13.94.17l3.63,5.29c.57.91.54,2.03-.06,2.89l-3.58,5.13c-.47.68-1.22,1.11-2.04,1.18-.08,0-.16.01-.25.01Z"></path>
  <path class="cls-1" d="m44.41,48.26H10.66c-1.42,0-2.58-1.16-2.58-2.58v-19.51c0-1.42,1.16-2.58,2.58-2.58h5.62c.37,0,.67.3.67.67s-.3.67-.67.67h-5.62c-.68,0-1.24.55-1.24,1.24v19.51c0,.68.55,1.24,1.24,1.24h33.75c.68,0,1.23-.55,1.23-1.24v-19.51c0-.68-.55-1.24-1.23-1.24h-5.62c-.37,0-.67-.3-.67-.67s.3-.67.67-.67h5.62c1.42,0,2.58,1.16,2.58,2.58v19.51c0,1.42-1.16,2.58-2.58,2.58Z"></path>
  <path class="cls-1" d="m36.27,38.48h-17.47c-.26,0-.51-.16-.61-.4s-.07-.53.11-.72l2.76-3.12c.13-.14.31-.23.51-.23h11.95c.19,0,.38.08.5.23l2.76,3.12c.18.2.22.48.11.72s-.35.4-.61.4Zm-15.97-1.35h14.47l-1.57-1.77h-11.34l-1.57,1.77Z"></path>
  <path class="cls-1" d="m33.51,35.36h-11.95c-.37,0-.67-.3-.67-.67v-2.8c0-.2.09-.39.24-.52.15-.13.36-.18.55-.14.48.09.95-.05,1.28-.39.29-.29.44-.69.42-1.09,0-.18.06-.36.18-.5.13-.13.3-.21.49-.21h6.95c.18,0,.36.08.49.21.13.13.19.31.18.5-.02.41.13.81.42,1.09.34.33.8.48,1.28.39.2-.04.4.02.55.14.15.13.24.32.24.52v2.8c0,.37-.3.67-.67.67Zm-11.28-1.35h10.6v-1.43c-.63-.06-1.23-.34-1.68-.79-.39-.39-.65-.88-.76-1.41h-5.72c-.11.53-.37,1.02-.76,1.41-.45.45-1.05.73-1.68.79v1.43Z"></path>
  <path class="cls-1" d="m14.18,44c-.17,0-.34-.07-.48-.2l-1.2-1.2c-.26-.26-.26-.69,0-.95l1.2-1.2c.26-.26.69-.26.95,0s.26.69,0,.95l-.72.72.72.72c.26.26.26.69,0,.95-.13.13-.3.2-.48.2Z"></path>
  <path class="cls-1" d="m17.61,44c-.17,0-.34-.07-.48-.2-.26-.26-.26-.69,0-.95l.72-.72-.72-.72c-.26-.26-.26-.69,0-.95s.69-.26.95,0l1.2,1.2c.26.26.26.69,0,.95l-1.2,1.2c-.13.13-.3.2-.48.2Z"></path>
  <path class="cls-1" d="m40.89,44c-.17,0-.34-.07-.48-.2-.26-.26-.26-.69,0-.95l.72-.72-.72-.72c-.26-.26-.26-.69,0-.95.26-.26.69-.26.95,0l1.2,1.2c.26.26.26.69,0,.95l-1.2,1.2c-.13.13-.3.2-.48.2Z"></path>
  <path class="cls-1" d="m37.47,44c-.17,0-.34-.07-.48-.2l-1.2-1.2c-.26-.26-.26-.69,0-.95l1.2-1.2c.26-.26.69-.26.95,0,.26.26.26.69,0,.95l-.72.72.72.72c.26.26.26.69,0,.95-.13.13-.3.2-.48.2Z"></path>
  <path class="cls-1" d="m33.73,42.8h-12.39c-.37,0-.67-.3-.67-.67s.3-.67.67-.67h12.39c.37,0,.67.3.67.67s-.3.67-.67.67Z"></path>
</svg>
