<?xml version="1.0" encoding="UTF-8"?>
<svg xmlns="http://www.w3.org/2000/svg" id="Layer_1" data-name="Layer 1" viewBox="0 0 40 40">
  <defs>
    <style>
      .cls-1, .cls-2 {
        fill: #231f20;
        stroke-width: 0px;
      }

      .cls-2 {
        fill-rule: evenodd;
      }
    </style>
  </defs>
  <g>
    <g>
      <path class="cls-2" d="m25.49,22.54l-1.83-1.83h0c-.17-.17-.17-.45,0-.62h0s1.83-1.83,1.83-1.83c.17-.17.45-.17.62,0,.17.17.17.45,0,.62l-1.52,1.52,1.52,1.52c.17.17.17.45,0,.62-.17.17-.45.17-.62,0h0Z"></path>
      <path class="cls-2" d="m29.06,21.91l1.52-1.52-1.52-1.52c-.17-.17-.17-.45,0-.62.17-.17.45-.17.62,0l1.83,1.83h0c.17.17.17.45,0,.62h0l-1.83,1.83c-.17.17-.45.17-.62,0s-.17-.45,0-.62h0Z"></path>
      <path class="cls-2" d="m28.68,17.98l-1.35,5.05c-.06.23-.3.37-.54.31-.23-.06-.37-.3-.31-.54l1.35-5.05c.06-.23.3-.37.54-.31.23.06.37.3.31.54h0Z"></path>
    </g>
    <path class="cls-2" d="m18.53,9.98c-.24-.21-.51-.41-.78-.59l.35-1.79c.09-.32-.08-.65-.4-.76l-1.6-.55h0c-.3-.1-.63.04-.76.32l-.79,1.68c-.33-.03-.65-.03-.97,0-.32.02-.64.06-.96.13l-.98-1.53c-.16-.29-.52-.4-.82-.26l-1.52.74h0c-.28.14-.42.46-.32.76l.59,1.77c-.25.21-.49.44-.71.69-.21.24-.41.5-.59.77l-1.77-.39c-.32-.09-.65.08-.76.4l-.55,1.6h0c-.1.29.03.62.31.76l1.67.83c-.03.33-.03.66-.01.98.02.33.06.65.13.97l-1.57,1h0c-.26.17-.36.51-.22.79l.73,1.5c.13.29.46.44.76.33l1.77-.59c.21.25.44.49.69.71.24.21.5.41.77.59l-.39,1.78c-.09.32.08.65.4.76l1.6.55h0c.29.1.62-.03.76-.31l.83-1.67c.34.03.67.03.99.01.33-.02.66-.07.99-.14l1.02,1.52c.16.28.52.39.81.25l1.51-.74h0c.28-.14.42-.47.31-.77l-.63-1.75c.25-.21.48-.44.7-.69.21-.24.41-.51.59-.78l1.79.35c.32.09.65-.08.76-.4l.55-1.6h0c.1-.3-.03-.63-.32-.76l-1.68-.79c.03-.33.03-.65,0-.97-.02-.33-.07-.66-.14-.98l1.52-1.02c.28-.16.39-.52.25-.81l-.74-1.52h0c-.14-.28-.47-.42-.77-.31l-1.75.63c-.21-.25-.44-.48-.69-.7h0Zm-6.7.69c1.14-.56,2.49-.68,3.79-.24,1.3.44,2.29,1.37,2.85,2.51.56,1.14.68,2.49.24,3.79-.44,1.3-1.37,2.29-2.51,2.85-1.14.56-2.49.68-3.79.24-1.3-.44-2.29-1.37-2.85-2.51-.56-1.14-.68-2.49-.24-3.79.44-1.3,1.37-2.29,2.51-2.85Z"></path>
  </g>
  <path class="cls-1" d="m33.84,11.48h-10.2l.17,1.03h9.52v13.3H10.77v-.75c-.35-.04-.69-.11-1.03-.2v4.24c0,.28.23.51.51.51h9.48c-.35.7-1.06,1.38-1.69,1.98-.31.29-.59.56-.84.83h0c-.19.21-.17.53.04.72.1.09.22.13.34.13h0s8.92,0,8.92,0c.28,0,.51-.23.51-.51,0-.15-.06-.28-.16-.38-.24-.26-.52-.52-.81-.8-.63-.6-1.35-1.27-1.69-1.98h9.48c.28,0,.51-.23.51-.51V11.99c0-.28-.23-.51-.51-.51Zm-2.07,16.42h-.26c-.28,0-.51-.23-.51-.51s.23-.51.51-.51h.26c.28,0,.51.23.51.51s-.23.51-.51.51Z"></path>
</svg>
