<?xml version="1.0" encoding="UTF-8"?>
<svg xmlns="http://www.w3.org/2000/svg" id="Calque_1" data-name="Calque 1" viewBox="0 0 55 55">
  <defs>
    <style>
      .cls-1 {
        fill: #090712;
        stroke-width: 0px;
      }
    </style>
  </defs>
  <path class="cls-1" d="m40.26,8.41c.76,0,1.52-.03,2.28,0,1.06.05,1.91.83,1.94,1.87.09,2.56.16,5.12-.59,7.62-.82,2.72-2.17,5.12-4.16,7.15-1.7,1.73-3.42,3.43-5.14,5.14-.35.35-.56.72-.63,1.23-.21,1.56-.39,3.13-.76,4.66-.81,3.27-2.52,6.06-4.88,8.45-.73.74-1.47,1.48-2.21,2.21-.38.37-.72.83-1.37.58-.62-.25-.63-.79-.65-1.34-.08-1.74-.21-3.48-.26-5.23-.02-.52-.24-.71-.69-.88-4.82-1.87-8.28-5.14-10.08-10.02-.22-.6-.52-.77-1.08-.79-1.66-.06-3.32-.15-4.98-.22-.2,0-.4,0-.59-.03-.79-.14-1.18-1.02-.64-1.6,3.05-3.28,6.29-6.34,10.82-7.45,1.55-.38,3.15-.59,4.73-.81.53-.07.95-.22,1.33-.6,1.62-1.65,3.26-3.27,4.89-4.9,3.51-3.53,7.76-5.17,12.71-5.03Zm-3.17,1.43c-.38.06-.68.08-.98.15-2.92.69-5.46,2.08-7.58,4.2-4.63,4.62-9.23,9.26-13.87,13.85-.56.56-.63,1.02-.35,1.7,1.76,4.27,4.87,7.15,9.09,8.92.56.23.91.1,1.32-.32,4.65-4.67,9.32-9.33,13.97-13.99,1.68-1.68,2.92-3.64,3.7-5.89.3-.86.62-1.73.63-2.71-3.07-.86-4.91-2.91-5.93-5.91Zm-16.67,10.62c-3.48-.58-10.71,3.35-13.03,7.05.2.05.38.11.57.12,1.49.08,2.98.13,4.46.22.5.03.84-.13,1.18-.48,2.09-2.12,4.21-4.22,6.31-6.34.17-.17.31-.36.5-.58Zm4.86,25.02c.1.05.2.1.31.15.67-.72,1.32-1.45,2-2.16,2.82-2.91,4.45-6.38,4.94-10.39.02-.2-.02-.4-.03-.66-.16.1-.24.12-.3.18-2.29,2.28-4.58,4.57-6.87,6.86-.13.13-.28.33-.27.49.06,1.84.14,3.69.22,5.53Zm13.1-35.77c.87,2.4,2.31,4.04,4.82,4.78.04-.46.11-.81.1-1.17-.01-.9-.04-1.8-.08-2.7-.03-.72-.23-.95-.97-.99-1.09-.05-2.19-.05-3.29-.06-.16,0-.31.07-.58.13Z"></path>
  <path class="cls-1" d="m7.67,36.7c.59.07,1.14.05,1.63.2.96.3,1.6.96,1.72,1.98.12.98-.28,1.79-1.11,2.3-.59.37-1.26.61-2.03.97,1.22.27,2.31.53,3.42.74.48.09.86-.17,1.18-.53.43-.48.85-.98,1.35-1.39,1.13-.92,2.35-.72,3.2.47.72,1.01.85,2.06.25,3.17-.1.19-.21.39-.36.67,1.04.13,1.86-.22,2.48-.86.58-.59,1-1.34,1.48-2.03.12-.18.19-.41.27-.62.15-.37.43-.53.81-.41.4.13.5.47.35.82-.81,1.99-1.91,3.72-4.19,4.28-.84.21-1.68.18-2.49-.13-.62-.24-.72-.65-.31-1.19.27-.36.57-.7.81-1.08.27-.42.35-.88.17-1.37-.41-1.14-1.15-1.32-2.02-.49-.32.31-.6.67-.9,1.01-.69.79-1.56,1.08-2.58.87-.55-.11-1.1-.23-1.64-.41-.96-.32-1.83-.17-2.64.4-.31.22-.62.45-.98.13-.33-.29-.23-.67-.11-1.02.37-1.06,1.03-1.86,2.08-2.3.47-.2.95-.36,1.4-.58.69-.33.99-.92.81-1.49-.18-.56-.91-.98-1.58-.84-.35.07-.66.3-1,.41-.27.09-.59.21-.85.14-.37-.1-.34-.49-.28-.79.52-2.84,1.86-5.11,4.53-6.43.17-.09.39-.19.55-.15.22.06.47.22.56.41.07.14-.03.45-.16.59-.16.18-.42.27-.64.39-1.52.84-2.58,2.06-3.15,3.7-.03.08-.05.16-.06.25,0,.05.01.11.02.17Z"></path>
  <path class="cls-1" d="m18.57,10.43c1.25-.51,2.48-.69,3.74-.24.24.09.48.17.7.29.48.26.66.6.5.93-.16.33-.53.38-1.03.2-.47-.16-.96-.35-1.45-.39-1.45-.13-2.56.49-3.36,1.69-.45.68-.74.81-1.1.54-.33-.25-.3-.66.1-1.28.12-.19.26-.37.4-.55.12-.15.24-.31.35-.45-.73-1.39-2.42-1.88-3.8-1.58-1.42.31-2.53,1.53-2.67,2.93.25.09.52.17.78.26,1.78.68,2.84,1.96,3.19,3.83.04.19.05.39.05.59,0,.4-.11.75-.58.77-.41.02-.59-.27-.63-.65-.02-.17-.04-.34-.06-.5-.44-2.6-3.27-3.89-5.51-2.51-.17.1-.33.21-.5.32-.29.2-.54.11-.75-.12-.26-.28-.24-.63.02-.82.47-.35.99-.64,1.51-.89.32-.16.7-.2,1.04-.3.87-4.48,6.17-5.79,9.09-2.1Z"></path>
  <path class="cls-1" d="m45.75,37.51c1-.36,2.03-.63,3.11-.36.43.11.87.24,1.27.42.56.25.74.62.53.97-.27.45-.65.31-1.04.17-.42-.16-.84-.35-1.28-.39-1.43-.14-2.58.4-3.42,1.59-.1.14-.16.3-.26.43-.22.3-.51.47-.87.25-.36-.22-.35-.56-.19-.89.15-.3.36-.57.55-.85.13-.18.28-.34.41-.5-.59-1.2-2.09-1.92-3.48-1.7-1.55.25-2.77,1.43-2.99,2.99.24.08.5.16.76.26,1.93.72,2.97,2.14,3.28,4.14.03.19.06.43-.03.58-.11.19-.35.45-.52.44-.23,0-.48-.21-.65-.39-.09-.09-.06-.32-.07-.49-.25-2.67-3.16-4.15-5.48-2.78-.17.1-.32.23-.49.33-.3.18-.6.17-.83-.11-.26-.32-.19-.68.13-.88.51-.33,1.07-.61,1.62-.88.27-.13.59-.16.87-.24.95-4.56,6.28-5.71,9.07-2.12Z"></path>
  <path class="cls-1" d="m36.92,20.39c.06,1.87-1.45,4.18-4.22,4.14-2.51-.03-4.13-1.95-4.15-4.23-.02-2.29,1.91-4.15,4.24-4.14,2.34.02,4.15,1.87,4.14,4.22Zm-4.16,2.9c1.64-.01,2.93-1.34,2.91-2.99-.03-1.63-1.38-2.95-3-2.92-1.57.02-2.87,1.36-2.87,2.97,0,1.63,1.32,2.95,2.96,2.94Z"></path>
</svg>
