<?xml version="1.0" encoding="UTF-8"?>
<svg xmlns="http://www.w3.org/2000/svg" id="Calque_1" data-name="Calque 1" viewBox="0 0 55 55">
  <defs>
    <style>
      .cls-1 {
        fill: #090712;
        stroke-width: 0px;
      }
    </style>
  </defs>
  <path class="cls-1" d="m27.56,47.33c-6.55,0-13.11,0-19.66,0-.36,0-.72,0-1.08-.04-1.37-.15-2.46-1.25-2.61-2.62-.01-.11-.01-.22-.03-.33-.14-1.08.1-1.99.95-2.76.63-.57,1.12-1.3,1.72-1.92.4-.41.54-.85.53-1.41-.01-8.86-.01-17.71-.01-26.57,0-.78.04-1.56,0-2.33-.12-1.88,1.57-3.22,3.17-3.21,7.36.05,14.72.02,22.07.02,3.91,0,7.83.06,11.74-.02,1.69-.03,3.32,1.2,3.31,3.35-.04,9.47,0,18.94-.03,28.4,0,.83.18,1.48.78,2.08.72.72,1.39,1.51,2.03,2.31.21.26.31.63.37.96.06.35.02.72.01,1.08-.03,1.67-1.26,2.96-2.95,2.98-3.22.04-6.44.02-9.66.02-3.55,0-7.11,0-10.66,0Zm18.86-8.68c0-.44,0-.8,0-1.15,0-9.22,0-18.43,0-27.65,0-.3,0-.61-.03-.91-.1-.73-.51-1.23-1.21-1.45-.34-.11-.71-.13-1.06-.13-11.08,0-22.15,0-33.23,0-1.6,0-2.31.68-2.31,2.27,0,9.41,0,18.82,0,28.23,0,.26.04.53.06.8h37.78Zm-40.17,3.55c1.03.23,41.79.19,42.44-.03-.45-.52-.91-1-1.29-1.53-.4-.55-.88-.72-1.55-.72-11.99.02-23.99.01-35.98.01-.39,0-.78-.02-1.17,0-.21.02-.47.06-.6.19-.61.64-1.18,1.31-1.85,2.06Zm26.41,3.86c.33.02.6.04.87.04,4.55,0,9.1,0,13.66,0,.25,0,.5,0,.75-.03,1.29-.16,1.92-1.19,1.51-2.45-1.28-.2-16.18-.12-16.79.1v2.33Zm-27.19-2.46c-.28,1.51.44,2.46,1.9,2.47,4.77.02,9.54.02,14.32.02.21,0,.43-.05.66-.08v-2.41H5.47Zm25.87,0h-7.65v2.45h7.65v-2.45Z"></path>
  <path class="cls-1" d="m33.4,16.34c.24.98.47,1.91.73,2.97,2.01.44,3.25,1.78,3.54,3.96h1.8c.14-.26.26-.51.4-.74.65-1.09,1.92-1.58,3.08-1.22,1.23.38,1.96,1.4,1.93,2.7-.03,1.23-.83,2.21-2.04,2.52-1.21.31-2.45-.2-3.01-1.35-.27-.55-.59-.73-1.15-.67-.33.03-.66,0-1.08,0-.51,1.92-1.64,3.36-3.38,4.31-1.75.97-3.59.99-5.51.51.5,1.29,1.44,2.08,2.71,2.15,2.27.12,4.54.03,6.79.03.88-1.7,1.92-2.29,3.38-1.97,1.14.26,2.07,1.42,2.08,2.61,0,1.19-.9,2.35-2.05,2.63-1.41.35-2.48-.26-3.41-1.98-.42,0-.89,0-1.36,0-1.55,0-3.11.02-4.66,0-1.91-.03-3.43-.8-4.45-2.46-.32-.51-.63-1.02-.97-1.57-.7.44-1.03,1.09-1.44,1.67-.45.63-.84,1.31-1.32,1.92-1.32,1.65-3.22,2.14-5.14,1.3-.46-.2-.83-.15-1.27-.02-2.28.66-4.67-.2-5.83-2.11-.82-1.34-.85-2.79-.44-4.26.14-.49.11-.87-.12-1.33-.8-1.61-.75-3.22.19-4.76.26-.42.36-.82.34-1.32-.17-3.26,2.27-5.78,5.55-5.67.7.02,1.06-.17,1.45-.76,2.19-3.36,7.29-3.47,9.78-.23.31.41.65.58,1.14.71.74.19,1.43.56,2.16.84.35.13.72.29,1.09.3,1.53.03,3.05,0,4.58.03.54.01.83-.14,1.07-.66.47-1.01,1.58-1.58,2.59-1.46,1.22.15,2.07.86,2.39,2,.37,1.31-.3,2.67-1.57,3.2-1.25.52-2.77.05-3.36-1.17-.28-.58-.62-.74-1.21-.71-1.14.04-2.28.01-3.41.02-.19,0-.37.04-.57.07Zm-20.35,3.1c.23-.09.46-.18.69-.26.29-.1.57-.22.87-.27.32-.06.63.04.73.4.11.38-.04.65-.42.78-.29.1-.59.17-.86.3-1.68.75-2.53,2.58-2.03,4.35.29,1.02.94,1.75,1.85,2.25.17.09.35.16.53.25.33.18.42.51.24.77-.12.18-.48.34-.67.29-.49-.13-.95-.38-1.42-.59-.54,1.35-.2,2.86.79,3.86.89.9,2.89,1.42,3.94.76-.06-.14-.13-.28-.19-.43-.07-.18-.17-.35-.21-.54-.13-.47,0-.79.37-.88.39-.1.64.08.77.45.06.16.12.31.2.46.37.74.94,1.2,1.77,1.37,1.29.27,2.3-.18,3.07-1.19.65-.86,1.23-1.78,1.84-2.67.1-.14.15-.31.27-.56-1.46.07-2.63.75-3.88,1.05,0,.39,0,.69,0,.99-.01.34-.16.6-.53.63-.4.04-.62-.18-.67-.57-.04-.32-.07-.64-.1-.93-.15-.06-.22-.11-.3-.12-1.9-.28-3.09-1.5-4.06-3.03-.22-.35-.26-.71.13-.94.37-.22.69-.08.92.28.21.32.42.66.67.95,1.05,1.23,2.33,1.87,3.98,1.42.53-.15,1.06-.31,1.58-.51,1.46-.55,2.92-.54,4.4-.05.89.3,1.8.59,2.72.78,3.13.67,5.8-1.66,6.29-3.8.43-1.87-.46-3.44-2.28-3.9q-1.18-.3-1.27-1.51c0-.08,0-.17-.02-.25-.27-3.06-3.08-4.68-5.87-3.4-.76.35-1.49.74-2.26,1.05-.92.38-1.88.46-2.85.2-.51-.14-.74-.45-.65-.8.1-.38.39-.45.94-.39.54.06,1.15.16,1.63-.02,1.26-.46,2.47-1.05,3.74-1.61-.12-.18-.16-.28-.24-.35-1.34-1.31-2.93-1.79-4.74-1.28-1.83.51-2.99,1.72-3.44,3.6-.18.78-.09,1.54.13,2.3.11.4.05.75-.4.86-.43.11-.7-.14-.79-.54-.1-.43-.19-.87-.22-1.31-.04-.55,0-1.1,0-1.64-2.28-.68-5.1,1.85-4.65,3.95Zm27.88-2.32c.81,0,1.46-.66,1.46-1.48,0-.82-.66-1.49-1.47-1.48-.81,0-1.45.66-1.45,1.49,0,.83.65,1.48,1.46,1.48Zm1.25,8.25c.81,0,1.49-.65,1.51-1.45.01-.8-.66-1.47-1.48-1.48-.83,0-1.5.64-1.51,1.44-.01.79.68,1.48,1.48,1.49Zm.2,6.79c0-.82-.66-1.48-1.46-1.49-.79,0-1.46.68-1.46,1.49,0,.82.65,1.48,1.46,1.49.77.01,1.46-.7,1.46-1.49Z"></path>
  <path class="cls-1" d="m24.95,20.88c1.07-.13,2-.38,2.92-.34,2.19.09,3.74,1.22,4.68,3.19.08.17.19.38.16.55-.04.22-.17.54-.32.59-.21.06-.5-.07-.72-.2-.12-.07-.15-.29-.22-.43-.85-1.73-2.58-2.73-4.32-2.5-2.03.27-3.34,1.49-3.8,3.52-.06.26-.25.59-.48.7-.46.22-.85-.22-.75-.84.17-1.06.62-2.01,1.34-2.81.16-.18.33-.36.49-.53-1.07-1.7-3.35-1.15-4.04.12-.11.19-.16.44-.32.57-.17.14-.48.28-.63.21-.2-.1-.43-.43-.4-.61.08-.39.26-.8.5-1.12,1.38-1.82,4.01-1.97,5.63-.35.12.12.23.24.27.28Z"></path>
</svg>
